M48
; DRILL file {KiCad 8.0.1} date 2024-04-24T14:46:07+0300
; FORMAT={-:-/ absolute / metric / decimal}
; #@! TF.CreationDate,2024-04-24T14:46:07+03:00
; #@! TF.GenerationSoftware,Kicad,Pcbnew,8.0.1
; #@! TF.FileFunction,Plated,1,2,PTH
FMAT,2
METRIC
; #@! TA.AperFunction,Plated,PTH,ViaDrill
T1C0.400
; #@! TA.AperFunction,Plated,PTH,ViaDrill
T2C0.500
; #@! TA.AperFunction,Plated,PTH,ComponentDrill
T3C1.000
; #@! TA.AperFunction,Plated,PTH,ComponentDrill
T4C1.300
; #@! TA.AperFunction,Plated,PTH,ComponentDrill
T5C2.700
%
G90
G05
T1
X105.71Y-97.14
X106.31Y-100.94
X108.255Y-91.96
X109.085Y-107.14
X109.085Y-108.44
X109.085Y-109.74
X109.085Y-111.04
X109.085Y-112.34
X109.085Y-113.64
X109.085Y-114.94
X109.085Y-116.24
X109.21Y-94.69
X110.385Y-107.14
X110.385Y-108.44
X110.385Y-109.74
X110.385Y-116.24
X111.685Y-107.14
X111.685Y-108.44
X111.685Y-109.74
X111.685Y-116.24
X113.494Y-78.445
X113.494Y-79.745
X113.494Y-81.045
X114.794Y-78.445
X114.794Y-79.745
X114.794Y-81.045
X116.094Y-78.445
X116.094Y-79.745
X116.094Y-81.045
X117.394Y-78.445
X117.394Y-79.745
X117.394Y-81.045
X118.694Y-78.445
X118.694Y-79.745
X118.694Y-81.045
X118.963Y-98.488
X119.96Y-106.59
X120.49Y-82.94
X120.49Y-84.44
X121.99Y-82.94
X121.99Y-84.44
X123.163Y-89.213
X123.894Y-78.445
X125.194Y-78.445
X125.31Y-97.14
X125.91Y-100.94
X127.858Y-91.967
X128.66Y-107.158
X128.66Y-108.458
X128.66Y-109.758
X128.66Y-111.058
X128.66Y-112.358
X128.66Y-113.658
X128.66Y-114.958
X128.66Y-116.258
X128.81Y-94.69
X128.813Y-75.563
X129.96Y-107.158
X129.96Y-108.458
X129.96Y-109.758
X129.96Y-116.258
X131.26Y-107.158
X131.26Y-108.458
X131.26Y-109.758
X131.26Y-116.258
X131.264Y-88.216
X132.613Y-74.963
X135.063Y-78.463
X137.763Y-77.513
X138.563Y-98.488
X139.56Y-106.59
X144.91Y-97.14
X145.51Y-100.94
X147.46Y-91.985
X148.19Y-107.09
X148.19Y-108.39
X148.19Y-109.69
X148.19Y-110.99
X148.19Y-112.29
X148.19Y-113.59
X148.19Y-114.89
X148.19Y-116.19
X148.41Y-94.69
X149.49Y-107.09
X149.49Y-108.39
X149.49Y-109.69
X149.49Y-116.19
X150.79Y-107.09
X150.79Y-108.39
X150.79Y-109.69
X150.79Y-116.19
X158.163Y-98.488
X159.16Y-106.59
T2
X149.34Y-77.79
T3
X129.023Y-67.773
X129.023Y-70.313
X131.563Y-67.773
X131.563Y-70.313
X134.103Y-67.773
X134.103Y-70.313
X136.643Y-67.773
X136.643Y-70.313
X139.183Y-67.773
X139.183Y-70.313
X141.723Y-67.773
X141.723Y-70.313
X142.65Y-77.04
X142.65Y-79.58
X142.65Y-82.12
X142.65Y-84.66
X142.65Y-87.2
X142.65Y-89.74
X144.263Y-67.773
X144.263Y-70.313
X146.803Y-67.773
X146.803Y-70.313
X149.343Y-67.773
X149.343Y-70.313
X151.883Y-67.773
X151.883Y-70.313
X154.423Y-67.773
X154.423Y-70.313
X156.963Y-67.773
X156.963Y-70.313
X159.503Y-67.773
X159.503Y-70.313
X160.452Y-79.593
X160.452Y-82.133
X160.452Y-84.673
X160.452Y-87.213
X162.043Y-67.773
X162.043Y-70.313
X164.583Y-67.773
X164.583Y-70.313
X167.123Y-67.773
X167.123Y-70.313
X169.663Y-67.773
X169.663Y-70.313
X170.58Y-76.94
X172.203Y-67.773
X172.203Y-70.313
X173.12Y-76.94
X174.743Y-67.773
X174.743Y-70.313
X175.66Y-76.94
X177.283Y-67.773
X177.283Y-70.313
X178.2Y-76.94
X180.74Y-76.94
X183.28Y-76.94
T4
X106.363Y-70.513
X106.363Y-74.013
X111.013Y-112.888
X114.513Y-112.888
X130.613Y-112.888
X134.113Y-112.888
X150.213Y-112.888
X153.713Y-112.888
T5
X182.148Y-69.038
X182.148Y-118.038
M30
