%TF.GenerationSoftware,KiCad,Pcbnew,8.0.1*%
%TF.CreationDate,2024-04-24T14:46:20+03:00*%
%TF.ProjectId,QRPfRA_RP4_hat,51525066-5241-45f5-9250-345f6861742e,rev?*%
%TF.SameCoordinates,Original*%
%TF.FileFunction,Soldermask,Top*%
%TF.FilePolarity,Negative*%
%FSLAX46Y46*%
G04 Gerber Fmt 4.6, Leading zero omitted, Abs format (unit mm)*
G04 Created by KiCad (PCBNEW 8.0.1) date 2024-04-24 14:46:20*
%MOMM*%
%LPD*%
G01*
G04 APERTURE LIST*
G04 Aperture macros list*
%AMRoundRect*
0 Rectangle with rounded corners*
0 $1 Rounding radius*
0 $2 $3 $4 $5 $6 $7 $8 $9 X,Y pos of 4 corners*
0 Add a 4 corners polygon primitive as box body*
4,1,4,$2,$3,$4,$5,$6,$7,$8,$9,$2,$3,0*
0 Add four circle primitives for the rounded corners*
1,1,$1+$1,$2,$3*
1,1,$1+$1,$4,$5*
1,1,$1+$1,$6,$7*
1,1,$1+$1,$8,$9*
0 Add four rect primitives between the rounded corners*
20,1,$1+$1,$2,$3,$4,$5,0*
20,1,$1+$1,$4,$5,$6,$7,0*
20,1,$1+$1,$6,$7,$8,$9,0*
20,1,$1+$1,$8,$9,$2,$3,0*%
G04 Aperture macros list end*
%ADD10R,2.600000X2.600000*%
%ADD11C,2.600000*%
%ADD12C,5.400000*%
%ADD13RoundRect,0.085000X0.085000X-0.265000X0.085000X0.265000X-0.085000X0.265000X-0.085000X-0.265000X0*%
%ADD14RoundRect,0.200000X0.275000X-0.200000X0.275000X0.200000X-0.275000X0.200000X-0.275000X-0.200000X0*%
%ADD15RoundRect,0.200000X0.200000X0.275000X-0.200000X0.275000X-0.200000X-0.275000X0.200000X-0.275000X0*%
%ADD16RoundRect,0.200000X-0.275000X0.200000X-0.275000X-0.200000X0.275000X-0.200000X0.275000X0.200000X0*%
%ADD17RoundRect,0.475000X-2.075000X0.475000X-2.075000X-0.475000X2.075000X-0.475000X2.075000X0.475000X0*%
%ADD18RoundRect,0.218750X0.256250X-0.218750X0.256250X0.218750X-0.256250X0.218750X-0.256250X-0.218750X0*%
%ADD19RoundRect,0.250000X0.325000X0.650000X-0.325000X0.650000X-0.325000X-0.650000X0.325000X-0.650000X0*%
%ADD20RoundRect,0.225000X0.225000X0.250000X-0.225000X0.250000X-0.225000X-0.250000X0.225000X-0.250000X0*%
%ADD21RoundRect,0.250000X-0.325000X-0.650000X0.325000X-0.650000X0.325000X0.650000X-0.325000X0.650000X0*%
%ADD22R,1.700000X1.700000*%
%ADD23O,1.700000X1.700000*%
%ADD24RoundRect,0.250000X-0.650000X0.325000X-0.650000X-0.325000X0.650000X-0.325000X0.650000X0.325000X0*%
%ADD25RoundRect,0.225000X0.250000X-0.225000X0.250000X0.225000X-0.250000X0.225000X-0.250000X-0.225000X0*%
%ADD26RoundRect,0.250000X0.650000X-0.325000X0.650000X0.325000X-0.650000X0.325000X-0.650000X-0.325000X0*%
%ADD27RoundRect,0.218750X-0.218750X-0.256250X0.218750X-0.256250X0.218750X0.256250X-0.218750X0.256250X0*%
%ADD28RoundRect,0.475000X0.475000X2.075000X-0.475000X2.075000X-0.475000X-2.075000X0.475000X-2.075000X0*%
%ADD29RoundRect,0.200000X-0.200000X-0.275000X0.200000X-0.275000X0.200000X0.275000X-0.200000X0.275000X0*%
%ADD30RoundRect,0.085000X-0.265000X-0.085000X0.265000X-0.085000X0.265000X0.085000X-0.265000X0.085000X0*%
G04 APERTURE END LIST*
D10*
%TO.C,J5*%
X106362529Y-74013043D03*
D11*
X106362529Y-70513043D03*
%TD*%
D12*
%TO.C,H4*%
X182147529Y-69038043D03*
%TD*%
%TO.C,H2*%
X182147529Y-118038043D03*
%TD*%
D11*
%TO.C,J9*%
X130612529Y-112888043D03*
D10*
X134112529Y-112888043D03*
%TD*%
%TO.C,J10*%
X153712529Y-112888043D03*
D11*
X150212529Y-112888043D03*
%TD*%
D10*
%TO.C,J11*%
X114512529Y-112888043D03*
D11*
X111012529Y-112888043D03*
%TD*%
D13*
%TO.C,U7*%
X109262529Y-100463043D03*
X109762529Y-100463043D03*
X110262529Y-100463043D03*
X110262529Y-98963043D03*
X109762529Y-98963043D03*
X109262529Y-98963043D03*
%TD*%
%TO.C,U6*%
X148462529Y-100463043D03*
X148962529Y-100463043D03*
X149462529Y-100463043D03*
X149462529Y-98963043D03*
X148962529Y-98963043D03*
X148462529Y-98963043D03*
%TD*%
%TO.C,U5*%
X128862529Y-98963043D03*
X129362529Y-98963043D03*
X129862529Y-98963043D03*
X129862529Y-100463043D03*
X129362529Y-100463043D03*
X128862529Y-100463043D03*
%TD*%
D14*
%TO.C,R28*%
X118212528Y-105308043D03*
X118212528Y-103658043D03*
%TD*%
D15*
%TO.C,R27*%
X107387529Y-98458043D03*
X105737529Y-98458043D03*
%TD*%
D16*
%TO.C,R26*%
X107387529Y-94983043D03*
X107387529Y-96633043D03*
%TD*%
%TO.C,R25*%
X109212529Y-95833043D03*
X109212529Y-97483043D03*
%TD*%
D14*
%TO.C,R24*%
X157412528Y-105308043D03*
X157412528Y-103658043D03*
%TD*%
D15*
%TO.C,R23*%
X146587529Y-98458043D03*
X144937529Y-98458043D03*
%TD*%
D16*
%TO.C,R22*%
X146587529Y-94983043D03*
X146587529Y-96633043D03*
%TD*%
%TO.C,R21*%
X148412529Y-95833043D03*
X148412529Y-97483043D03*
%TD*%
D14*
%TO.C,R20*%
X137812528Y-103658043D03*
X137812528Y-105308043D03*
%TD*%
D15*
%TO.C,R19*%
X125337529Y-98458043D03*
X126987529Y-98458043D03*
%TD*%
D16*
%TO.C,R18*%
X126987529Y-96633043D03*
X126987529Y-94983043D03*
%TD*%
%TO.C,R17*%
X128812529Y-97483043D03*
X128812529Y-95833043D03*
%TD*%
D17*
%TO.C,L7*%
X114462529Y-95608043D03*
X114462529Y-99808043D03*
%TD*%
%TO.C,L6*%
X153662529Y-95608043D03*
X153662529Y-99808043D03*
%TD*%
%TO.C,L5*%
X134062529Y-99808043D03*
X134062529Y-95608043D03*
%TD*%
D18*
%TO.C,D7*%
X119962528Y-105238043D03*
X119962528Y-103663043D03*
%TD*%
%TO.C,D6*%
X159162528Y-105238043D03*
X159162528Y-103663043D03*
%TD*%
%TO.C,D5*%
X139562528Y-103663043D03*
X139562528Y-105238043D03*
%TD*%
D19*
%TO.C,C28*%
X114262529Y-102613043D03*
X111312529Y-102613043D03*
%TD*%
%TO.C,C27*%
X114287529Y-105308043D03*
X111337529Y-105308043D03*
%TD*%
D20*
%TO.C,C26*%
X112362529Y-93208043D03*
X110812529Y-93208043D03*
%TD*%
D21*
%TO.C,C25*%
X106287529Y-102608043D03*
X109237529Y-102608043D03*
%TD*%
D19*
%TO.C,C24*%
X153462529Y-102613043D03*
X150512529Y-102613043D03*
%TD*%
%TO.C,C23*%
X153487529Y-105308043D03*
X150537529Y-105308043D03*
%TD*%
D20*
%TO.C,C22*%
X151562529Y-93208043D03*
X150012529Y-93208043D03*
%TD*%
D21*
%TO.C,C21*%
X145487529Y-102608043D03*
X148437529Y-102608043D03*
%TD*%
D19*
%TO.C,C20*%
X130912529Y-102613043D03*
X133862529Y-102613043D03*
%TD*%
%TO.C,C19*%
X130937529Y-105308043D03*
X133887529Y-105308043D03*
%TD*%
D20*
%TO.C,C18*%
X130412529Y-93208043D03*
X131962529Y-93208043D03*
%TD*%
D21*
%TO.C,C17*%
X128837529Y-102608043D03*
X125887529Y-102608043D03*
%TD*%
D22*
%TO.C,J1*%
X129022529Y-70313043D03*
D23*
X129022529Y-67773043D03*
X131562529Y-70313043D03*
X131562529Y-67773043D03*
X134102529Y-70313043D03*
X134102529Y-67773043D03*
X136642529Y-70313043D03*
X136642529Y-67773043D03*
X139182529Y-70313043D03*
X139182529Y-67773043D03*
X141722529Y-70313043D03*
X141722529Y-67773043D03*
X144262529Y-70313043D03*
X144262529Y-67773043D03*
X146802529Y-70313043D03*
X146802529Y-67773043D03*
X149342529Y-70313043D03*
X149342529Y-67773043D03*
X151882529Y-70313043D03*
X151882529Y-67773043D03*
X154422529Y-70313043D03*
X154422529Y-67773043D03*
X156962529Y-70313043D03*
X156962529Y-67773043D03*
X159502529Y-70313043D03*
X159502529Y-67773043D03*
X162042529Y-70313043D03*
X162042529Y-67773043D03*
X164582529Y-70313043D03*
X164582529Y-67773043D03*
X167122529Y-70313043D03*
X167122529Y-67773043D03*
X169662529Y-70313043D03*
X169662529Y-67773043D03*
X172202529Y-70313043D03*
X172202529Y-67773043D03*
X174742529Y-70313043D03*
X174742529Y-67773043D03*
X177282529Y-70313043D03*
X177282529Y-67773043D03*
%TD*%
D24*
%TO.C,C1*%
X127144486Y-75540572D03*
X127144486Y-78490572D03*
%TD*%
D25*
%TO.C,C2*%
X136544486Y-80065572D03*
X136544486Y-81615572D03*
%TD*%
D26*
%TO.C,C3*%
X124444486Y-80590572D03*
X124444486Y-83540572D03*
%TD*%
%TO.C,C4*%
X127139486Y-80565572D03*
X127139486Y-83515572D03*
%TD*%
D27*
%TO.C,D1*%
X124514486Y-89215572D03*
X126089486Y-89215572D03*
%TD*%
D28*
%TO.C,L1*%
X129944486Y-83715572D03*
X134144486Y-83715572D03*
%TD*%
D15*
%TO.C,R1*%
X133919486Y-78465572D03*
X132269486Y-78465572D03*
%TD*%
%TO.C,R2*%
X133119486Y-76640572D03*
X134769486Y-76640572D03*
%TD*%
D14*
%TO.C,R3*%
X131294486Y-76640572D03*
X131294486Y-74990572D03*
%TD*%
D29*
%TO.C,R13*%
X124444486Y-87465572D03*
X126094486Y-87465572D03*
%TD*%
D30*
%TO.C,U1*%
X130789486Y-78515572D03*
X130789486Y-79015572D03*
X130789486Y-79515572D03*
X129289486Y-79515572D03*
X129289486Y-79015572D03*
X129289486Y-78515572D03*
%TD*%
D22*
%TO.C,J3*%
X142650000Y-77040000D03*
D23*
X142650000Y-79580000D03*
X142650000Y-82120000D03*
X142650000Y-84660000D03*
X142650000Y-87200000D03*
X142650000Y-89740000D03*
%TD*%
%TO.C,J2*%
X160452243Y-87213043D03*
X160452243Y-84673043D03*
X160452243Y-82133043D03*
D22*
X160452243Y-79593043D03*
%TD*%
%TO.C,J4*%
X170580000Y-76940000D03*
D23*
X173120000Y-76940000D03*
X175660000Y-76940000D03*
X178200000Y-76940000D03*
X180740000Y-76940000D03*
X183280000Y-76940000D03*
%TD*%
M02*
