%TF.GenerationSoftware,KiCad,Pcbnew,8.0.1*%
%TF.CreationDate,2024-04-24T14:46:19+03:00*%
%TF.ProjectId,QRPfRA_RP4_hat,51525066-5241-45f5-9250-345f6861742e,rev?*%
%TF.SameCoordinates,Original*%
%TF.FileFunction,Copper,L2,Bot*%
%TF.FilePolarity,Positive*%
%FSLAX46Y46*%
G04 Gerber Fmt 4.6, Leading zero omitted, Abs format (unit mm)*
G04 Created by KiCad (PCBNEW 8.0.1) date 2024-04-24 14:46:19*
%MOMM*%
%LPD*%
G01*
G04 APERTURE LIST*
%TA.AperFunction,ComponentPad*%
%ADD10R,2.600000X2.600000*%
%TD*%
%TA.AperFunction,ComponentPad*%
%ADD11C,2.600000*%
%TD*%
%TA.AperFunction,ComponentPad*%
%ADD12C,5.400000*%
%TD*%
%TA.AperFunction,ComponentPad*%
%ADD13R,1.700000X1.700000*%
%TD*%
%TA.AperFunction,ComponentPad*%
%ADD14O,1.700000X1.700000*%
%TD*%
%TA.AperFunction,ViaPad*%
%ADD15C,0.800000*%
%TD*%
%TA.AperFunction,ViaPad*%
%ADD16C,1.000000*%
%TD*%
%TA.AperFunction,Conductor*%
%ADD17C,0.600000*%
%TD*%
G04 APERTURE END LIST*
D10*
%TO.P,J5,1,Pin_1*%
%TO.N,+12V*%
X106362529Y-74013043D03*
D11*
%TO.P,J5,2,Pin_2*%
%TO.N,GND*%
X106362529Y-70513043D03*
%TD*%
D12*
%TO.P,H4,1,1*%
%TO.N,unconnected-(H4-Pad1)*%
X182147529Y-69038043D03*
%TD*%
%TO.P,H2,1,1*%
%TO.N,unconnected-(H2-Pad1)*%
X182147529Y-118038043D03*
%TD*%
D11*
%TO.P,J9,2,Pin_2*%
%TO.N,GND*%
X130612529Y-112888043D03*
D10*
%TO.P,J9,1,Pin_1*%
%TO.N,+5V_2*%
X134112529Y-112888043D03*
%TD*%
%TO.P,J10,1,Pin_1*%
%TO.N,+5V_3*%
X153712529Y-112888043D03*
D11*
%TO.P,J10,2,Pin_2*%
%TO.N,GND*%
X150212529Y-112888043D03*
%TD*%
D10*
%TO.P,J11,1,Pin_1*%
%TO.N,+5V_1*%
X114512529Y-112888043D03*
D11*
%TO.P,J11,2,Pin_2*%
%TO.N,GND*%
X111012529Y-112888043D03*
%TD*%
D13*
%TO.P,J1,1,3V3*%
%TO.N,+3.3V_S*%
X129022529Y-70313043D03*
D14*
%TO.P,J1,2,5V*%
%TO.N,+5V_4*%
X129022529Y-67773043D03*
%TO.P,J1,3,SDA/GPIO2*%
%TO.N,/SDA*%
X131562529Y-70313043D03*
%TO.P,J1,4,5V*%
%TO.N,+5V_4*%
X131562529Y-67773043D03*
%TO.P,J1,5,SCL/GPIO3*%
%TO.N,/SCL*%
X134102529Y-70313043D03*
%TO.P,J1,6,GND*%
%TO.N,GND*%
X134102529Y-67773043D03*
%TO.P,J1,7,GCLK0/GPIO4*%
%TO.N,unconnected-(J1-GCLK0{slash}GPIO4-Pad7)*%
X136642529Y-70313043D03*
%TO.P,J1,8,GPIO14/TXD*%
%TO.N,unconnected-(J1-GPIO14{slash}TXD-Pad8)*%
X136642529Y-67773043D03*
%TO.P,J1,9,GND*%
%TO.N,GND*%
X139182529Y-70313043D03*
%TO.P,J1,10,GPIO15/RXD*%
%TO.N,unconnected-(J1-GPIO15{slash}RXD-Pad10)*%
X139182529Y-67773043D03*
%TO.P,J1,11,GPIO17*%
%TO.N,unconnected-(J1-GPIO17-Pad11)*%
X141722529Y-70313043D03*
%TO.P,J1,12,GPIO18/PWM0*%
%TO.N,unconnected-(J1-GPIO18{slash}PWM0-Pad12)*%
X141722529Y-67773043D03*
%TO.P,J1,13,GPIO27*%
%TO.N,unconnected-(J1-GPIO27-Pad13)*%
X144262529Y-70313043D03*
%TO.P,J1,14,GND*%
%TO.N,GND*%
X144262529Y-67773043D03*
%TO.P,J1,15,GPIO22*%
%TO.N,unconnected-(J1-GPIO22-Pad15)*%
X146802529Y-70313043D03*
%TO.P,J1,16,GPIO23*%
%TO.N,unconnected-(J1-GPIO23-Pad16)*%
X146802529Y-67773043D03*
%TO.P,J1,17,3V3*%
%TO.N,+3.3V_S*%
X149342529Y-70313043D03*
%TO.P,J1,18,GPIO24*%
%TO.N,unconnected-(J1-GPIO24-Pad18)*%
X149342529Y-67773043D03*
%TO.P,J1,19,MOSI0/GPIO10*%
%TO.N,unconnected-(J1-MOSI0{slash}GPIO10-Pad19)*%
X151882529Y-70313043D03*
%TO.P,J1,20,GND*%
%TO.N,GND*%
X151882529Y-67773043D03*
%TO.P,J1,21,MISO0/GPIO9*%
%TO.N,unconnected-(J1-MISO0{slash}GPIO9-Pad21)*%
X154422529Y-70313043D03*
%TO.P,J1,22,GPIO25*%
%TO.N,unconnected-(J1-GPIO25-Pad22)*%
X154422529Y-67773043D03*
%TO.P,J1,23,SCLK0/GPIO11*%
%TO.N,unconnected-(J1-SCLK0{slash}GPIO11-Pad23)*%
X156962529Y-70313043D03*
%TO.P,J1,24,~{CE0}/GPIO8*%
%TO.N,unconnected-(J1-~{CE0}{slash}GPIO8-Pad24)*%
X156962529Y-67773043D03*
%TO.P,J1,25,GND*%
%TO.N,GND*%
X159502529Y-70313043D03*
%TO.P,J1,26,~{CE1}/GPIO7*%
%TO.N,unconnected-(J1-~{CE1}{slash}GPIO7-Pad26)*%
X159502529Y-67773043D03*
%TO.P,J1,27,ID_SD/GPIO0*%
%TO.N,unconnected-(J1-ID_SD{slash}GPIO0-Pad27)*%
X162042529Y-70313043D03*
%TO.P,J1,28,ID_SC/GPIO1*%
%TO.N,unconnected-(J1-ID_SC{slash}GPIO1-Pad28)*%
X162042529Y-67773043D03*
%TO.P,J1,29,GCLK1/GPIO5*%
%TO.N,unconnected-(J1-GCLK1{slash}GPIO5-Pad29)*%
X164582529Y-70313043D03*
%TO.P,J1,30,GND*%
%TO.N,GND*%
X164582529Y-67773043D03*
%TO.P,J1,31,GCLK2/GPIO6*%
%TO.N,unconnected-(J1-GCLK2{slash}GPIO6-Pad31)*%
X167122529Y-70313043D03*
%TO.P,J1,32,PWM0/GPIO12*%
%TO.N,unconnected-(J1-PWM0{slash}GPIO12-Pad32)*%
X167122529Y-67773043D03*
%TO.P,J1,33,PWM1/GPIO13*%
%TO.N,unconnected-(J1-PWM1{slash}GPIO13-Pad33)*%
X169662529Y-70313043D03*
%TO.P,J1,34,GND*%
%TO.N,GND*%
X169662529Y-67773043D03*
%TO.P,J1,35,GPIO19/MISO1*%
%TO.N,unconnected-(J1-GPIO19{slash}MISO1-Pad35)*%
X172202529Y-70313043D03*
%TO.P,J1,36,GPIO16*%
%TO.N,unconnected-(J1-GPIO16-Pad36)*%
X172202529Y-67773043D03*
%TO.P,J1,37,GPIO26*%
%TO.N,unconnected-(J1-GPIO26-Pad37)*%
X174742529Y-70313043D03*
%TO.P,J1,38,GPIO20/MOSI1*%
%TO.N,unconnected-(J1-GPIO20{slash}MOSI1-Pad38)*%
X174742529Y-67773043D03*
%TO.P,J1,39,GND*%
%TO.N,GND*%
X177282529Y-70313043D03*
%TO.P,J1,40,GPIO21/SCLK1*%
%TO.N,unconnected-(J1-GPIO21{slash}SCLK1-Pad40)*%
X177282529Y-67773043D03*
%TD*%
D13*
%TO.P,J3,1,Pin_1*%
%TO.N,unconnected-(J3-Pin_1-Pad1)*%
X142650000Y-77040000D03*
D14*
%TO.P,J3,2,Pin_2*%
%TO.N,/SCL*%
X142650000Y-79580000D03*
%TO.P,J3,3,Pin_3*%
%TO.N,/SDA*%
X142650000Y-82120000D03*
%TO.P,J3,4,Pin_4*%
%TO.N,GND*%
X142650000Y-84660000D03*
%TO.P,J3,5,Pin_5*%
%TO.N,unconnected-(J3-Pin_5-Pad5)*%
X142650000Y-87200000D03*
%TO.P,J3,6,Pin_6*%
%TO.N,+3.3V_S*%
X142650000Y-89740000D03*
%TD*%
%TO.P,J2,4,Pin_4*%
%TO.N,unconnected-(J2-Pin_4-Pad4)*%
X160452243Y-87213043D03*
%TO.P,J2,3,Pin_3*%
%TO.N,unconnected-(J2-Pin_3-Pad3)*%
X160452243Y-84673043D03*
%TO.P,J2,2,Pin_2*%
%TO.N,unconnected-(J2-Pin_2-Pad2)*%
X160452243Y-82133043D03*
D13*
%TO.P,J2,1,Pin_1*%
%TO.N,unconnected-(J2-Pin_1-Pad1)*%
X160452243Y-79593043D03*
%TD*%
%TO.P,J4,1,Pin_1*%
%TO.N,unconnected-(J4-Pin_1-Pad1)*%
X170580000Y-76940000D03*
D14*
%TO.P,J4,2,Pin_2*%
%TO.N,+5V_4*%
X173120000Y-76940000D03*
%TO.P,J4,3,Pin_3*%
%TO.N,/SDA*%
X175660000Y-76940000D03*
%TO.P,J4,4,Pin_4*%
%TO.N,/SCL*%
X178200000Y-76940000D03*
%TO.P,J4,5,Pin_5*%
%TO.N,unconnected-(J4-Pin_5-Pad5)*%
X180740000Y-76940000D03*
%TO.P,J4,6,Pin_6*%
%TO.N,GND*%
X183280000Y-76940000D03*
%TD*%
D15*
%TO.N,GND*%
X148190000Y-116190000D03*
X148190000Y-114890000D03*
X150790000Y-107090000D03*
X149490000Y-107090000D03*
X148190000Y-107090000D03*
X150790000Y-108390000D03*
X149490000Y-108390000D03*
X148190000Y-108390000D03*
X150790000Y-109690000D03*
X149490000Y-109690000D03*
X148190000Y-109690000D03*
X148190000Y-110990000D03*
X148190000Y-112290000D03*
X148190000Y-113590000D03*
X150790000Y-116190000D03*
X149490000Y-116190000D03*
D16*
%TO.N,+3.3V_S*%
X149340000Y-77790000D03*
D15*
%TO.N,+5V_4*%
X121990000Y-84440000D03*
X120490000Y-84440000D03*
X121990000Y-82940000D03*
X120490000Y-82940000D03*
%TO.N,GND*%
X109085000Y-114940000D03*
X111685000Y-116240000D03*
X110385000Y-116240000D03*
X109085000Y-116240000D03*
X111685000Y-107140000D03*
X110385000Y-107140000D03*
X109085000Y-107140000D03*
X111685000Y-108440000D03*
X110385000Y-108440000D03*
X109085000Y-108440000D03*
X111685000Y-109740000D03*
X110385000Y-109740000D03*
X109085000Y-109740000D03*
X109085000Y-111040000D03*
X109085000Y-112340000D03*
X109085000Y-113640000D03*
X125194279Y-78444793D03*
X123894279Y-78444793D03*
X131260000Y-107158250D03*
X129960000Y-107158250D03*
X128660000Y-107158250D03*
X131260000Y-108458250D03*
X129960000Y-108458250D03*
X128660000Y-108458250D03*
X131260000Y-109758250D03*
X129960000Y-109758250D03*
X128660000Y-109758250D03*
X128660000Y-111058250D03*
X118694279Y-81044793D03*
X118694279Y-79744793D03*
X118694279Y-78444793D03*
X128660000Y-112358250D03*
X117394279Y-81044793D03*
X117394279Y-79744793D03*
X117394279Y-78444793D03*
X128660000Y-113658250D03*
X116094279Y-81044793D03*
X116094279Y-79744793D03*
X116094279Y-78444793D03*
X128660000Y-114958250D03*
X114794279Y-81044793D03*
X114794279Y-79744793D03*
X114794279Y-78444793D03*
X131260000Y-116258250D03*
X129960000Y-116258250D03*
X128660000Y-116258250D03*
X113494279Y-81044793D03*
X113494279Y-79744793D03*
X113494279Y-78444793D03*
%TO.N,+5V_1*%
X108255286Y-91960000D03*
%TO.N,+5V_2*%
X127857757Y-91966957D03*
%TO.N,+5V_3*%
X147460286Y-91985000D03*
X158162529Y-98488043D03*
%TO.N,GND*%
X144910000Y-97140000D03*
X159160000Y-106590000D03*
%TO.N,+12V*%
X145510000Y-100940000D03*
X148410000Y-94690000D03*
%TO.N,+5V_2*%
X138562529Y-98488043D03*
%TO.N,GND*%
X125310000Y-97140000D03*
X139560000Y-106590000D03*
%TO.N,+12V*%
X125910000Y-100940000D03*
X128810000Y-94690000D03*
%TO.N,+5V_1*%
X118962529Y-98488043D03*
%TO.N,GND*%
X105710000Y-97140000D03*
X119960000Y-106590000D03*
%TO.N,+12V*%
X106310000Y-100940000D03*
X109210000Y-94690000D03*
X135062529Y-78463043D03*
X128812529Y-75563043D03*
%TO.N,GND*%
X123162529Y-89213043D03*
X132612529Y-74963043D03*
%TO.N,+5V_4*%
X131264486Y-88215572D03*
X137762529Y-77513043D03*
%TD*%
D17*
%TO.N,+3.3V_S*%
X149340000Y-77790000D02*
X149340000Y-83044942D01*
X149340000Y-83044942D02*
X149342529Y-83047471D01*
X149342529Y-83047471D02*
X142650000Y-89740000D01*
%TO.N,+5V_1*%
X116957815Y-91308043D02*
X108907243Y-91308043D01*
X108907243Y-91308043D02*
X108255286Y-91960000D01*
%TO.N,+5V_2*%
X136560286Y-91315000D02*
X128509714Y-91315000D01*
X128509714Y-91315000D02*
X127857757Y-91966957D01*
%TO.N,+5V_3*%
X156162815Y-91333043D02*
X148112243Y-91333043D01*
X148112243Y-91333043D02*
X147460286Y-91985000D01*
%TO.N,+12V*%
X107010000Y-96890000D02*
X107010000Y-100240000D01*
X109210000Y-94690000D02*
X107010000Y-96890000D01*
X107010000Y-100240000D02*
X106310000Y-100940000D01*
%TO.N,+5V_1*%
X118962529Y-98488043D02*
X118962529Y-93338043D01*
X118962529Y-93338043D02*
X116962529Y-91338043D01*
%TO.N,+12V*%
X146210000Y-96890000D02*
X146210000Y-100240000D01*
X148410000Y-94690000D02*
X146210000Y-96890000D01*
X146210000Y-100240000D02*
X145510000Y-100940000D01*
%TO.N,+5V_3*%
X158162529Y-98488043D02*
X158162529Y-93338043D01*
X158162529Y-93338043D02*
X156162529Y-91338043D01*
%TO.N,+12V*%
X126610000Y-96890000D02*
X126610000Y-100240000D01*
X128810000Y-94690000D02*
X126610000Y-96890000D01*
X126610000Y-100240000D02*
X125910000Y-100940000D01*
%TO.N,+5V_2*%
X138562529Y-98488043D02*
X138562529Y-93338043D01*
X138562529Y-93338043D02*
X136562529Y-91338043D01*
%TO.N,+12V*%
X107010000Y-96890000D02*
X107010000Y-100240000D01*
X109210000Y-94690000D02*
X107010000Y-96890000D01*
X107010000Y-100240000D02*
X106310000Y-100940000D01*
%TO.N,+5V_1*%
X118962529Y-98488043D02*
X118962529Y-93338043D01*
X118962529Y-93338043D02*
X116962529Y-91338043D01*
%TO.N,+5V_4*%
X136414486Y-88215572D02*
X138414486Y-86215572D01*
X131264486Y-88215572D02*
X136414486Y-88215572D01*
X138414486Y-86215572D02*
X138414486Y-78165000D01*
X138414486Y-78165000D02*
X137762529Y-77513043D01*
%TO.N,+12V*%
X129512529Y-76263043D02*
X128812529Y-75563043D01*
X135062529Y-78463043D02*
X132862529Y-76263043D01*
X132862529Y-76263043D02*
X129512529Y-76263043D01*
%TD*%
%TA.AperFunction,Conductor*%
%TO.N,GND*%
G36*
X187499161Y-65541411D02*
G01*
X187502529Y-65549543D01*
X187502529Y-121526543D01*
X187499161Y-121534675D01*
X187491029Y-121538043D01*
X172614029Y-121538043D01*
X172605897Y-121534675D01*
X172602529Y-121526543D01*
X172602529Y-118038043D01*
X179315237Y-118038043D01*
X179334388Y-118366855D01*
X179391581Y-118691211D01*
X179391583Y-118691218D01*
X179486045Y-119006747D01*
X179616496Y-119309167D01*
X179616503Y-119309180D01*
X179781183Y-119594413D01*
X179977853Y-119858589D01*
X179977859Y-119858595D01*
X179977861Y-119858597D01*
X179977867Y-119858605D01*
X180203892Y-120098178D01*
X180203898Y-120098183D01*
X180203901Y-120098186D01*
X180456186Y-120309879D01*
X180456196Y-120309886D01*
X180456201Y-120309890D01*
X180564431Y-120381074D01*
X180731380Y-120490879D01*
X180880505Y-120565771D01*
X181025715Y-120638699D01*
X181025720Y-120638701D01*
X181025729Y-120638705D01*
X181335215Y-120751348D01*
X181335213Y-120751348D01*
X181394509Y-120765401D01*
X181655707Y-120827306D01*
X181901061Y-120855983D01*
X181982844Y-120865543D01*
X181982846Y-120865543D01*
X182312214Y-120865543D01*
X182384909Y-120857045D01*
X182639351Y-120827306D01*
X182959840Y-120751349D01*
X182959843Y-120751348D01*
X183269328Y-120638705D01*
X183269333Y-120638702D01*
X183269343Y-120638699D01*
X183563675Y-120490880D01*
X183838857Y-120309890D01*
X183838866Y-120309882D01*
X183838871Y-120309879D01*
X184091156Y-120098186D01*
X184091166Y-120098178D01*
X184317191Y-119858605D01*
X184317199Y-119858593D01*
X184317204Y-119858589D01*
X184513874Y-119594413D01*
X184678554Y-119309180D01*
X184678561Y-119309167D01*
X184726626Y-119197738D01*
X184809013Y-119006744D01*
X184903476Y-118691214D01*
X184960670Y-118366852D01*
X184979821Y-118038043D01*
X184960670Y-117709234D01*
X184903476Y-117384872D01*
X184809013Y-117069342D01*
X184809012Y-117069338D01*
X184678561Y-116766918D01*
X184678554Y-116766905D01*
X184513874Y-116481672D01*
X184317204Y-116217496D01*
X184317198Y-116217490D01*
X184317196Y-116217488D01*
X184317191Y-116217481D01*
X184091166Y-115977908D01*
X184091159Y-115977902D01*
X184091156Y-115977899D01*
X183838871Y-115766206D01*
X183838859Y-115766198D01*
X183838857Y-115766196D01*
X183789348Y-115733633D01*
X183563677Y-115585206D01*
X183269345Y-115437388D01*
X183269328Y-115437380D01*
X182959842Y-115324737D01*
X182959844Y-115324737D01*
X182639355Y-115248781D01*
X182639351Y-115248780D01*
X182639346Y-115248779D01*
X182639344Y-115248779D01*
X182312214Y-115210543D01*
X182312212Y-115210543D01*
X181982846Y-115210543D01*
X181982844Y-115210543D01*
X181655713Y-115248779D01*
X181655708Y-115248779D01*
X181655707Y-115248780D01*
X181655705Y-115248780D01*
X181655702Y-115248781D01*
X181335214Y-115324737D01*
X181025729Y-115437380D01*
X181025712Y-115437388D01*
X180731380Y-115585206D01*
X180456205Y-115766193D01*
X180456186Y-115766206D01*
X180203901Y-115977899D01*
X180203888Y-115977912D01*
X179977859Y-116217490D01*
X179977853Y-116217496D01*
X179781183Y-116481672D01*
X179616503Y-116766905D01*
X179616496Y-116766918D01*
X179486046Y-117069338D01*
X179486045Y-117069338D01*
X179391583Y-117384867D01*
X179391581Y-117384874D01*
X179334388Y-117709230D01*
X179315237Y-118038043D01*
X172602529Y-118038043D01*
X172602529Y-95073044D01*
X172602529Y-95073043D01*
X172602528Y-95073043D01*
X163902530Y-95073043D01*
X163902529Y-95073043D01*
X163902529Y-95073044D01*
X163902529Y-121526543D01*
X163899161Y-121534675D01*
X163891029Y-121538043D01*
X100474029Y-121538043D01*
X100465897Y-121534675D01*
X100462529Y-121526543D01*
X100462529Y-114200599D01*
X113085029Y-114200599D01*
X113092426Y-114237789D01*
X113092427Y-114237791D01*
X113106564Y-114258948D01*
X113120605Y-114279963D01*
X113120607Y-114279965D01*
X113162781Y-114308145D01*
X113199971Y-114315543D01*
X113199972Y-114315543D01*
X115825086Y-114315543D01*
X115825087Y-114315543D01*
X115862277Y-114308145D01*
X115904451Y-114279965D01*
X115932631Y-114237791D01*
X115940029Y-114200601D01*
X115940029Y-114200599D01*
X132685029Y-114200599D01*
X132692426Y-114237789D01*
X132692427Y-114237791D01*
X132706564Y-114258948D01*
X132720605Y-114279963D01*
X132720607Y-114279965D01*
X132762781Y-114308145D01*
X132799971Y-114315543D01*
X132799972Y-114315543D01*
X135425086Y-114315543D01*
X135425087Y-114315543D01*
X135462277Y-114308145D01*
X135504451Y-114279965D01*
X135532631Y-114237791D01*
X135540029Y-114200601D01*
X135540029Y-114200599D01*
X152285029Y-114200599D01*
X152292426Y-114237789D01*
X152292427Y-114237791D01*
X152306564Y-114258948D01*
X152320605Y-114279963D01*
X152320607Y-114279965D01*
X152362781Y-114308145D01*
X152399971Y-114315543D01*
X152399972Y-114315543D01*
X155025086Y-114315543D01*
X155025087Y-114315543D01*
X155062277Y-114308145D01*
X155104451Y-114279965D01*
X155132631Y-114237791D01*
X155140029Y-114200601D01*
X155140029Y-111575485D01*
X155132631Y-111538295D01*
X155104451Y-111496121D01*
X155104449Y-111496119D01*
X155083434Y-111482078D01*
X155062277Y-111467941D01*
X155062275Y-111467940D01*
X155034320Y-111462379D01*
X155025087Y-111460543D01*
X152399971Y-111460543D01*
X152392574Y-111462014D01*
X152362782Y-111467940D01*
X152362781Y-111467941D01*
X152320608Y-111496119D01*
X152320605Y-111496122D01*
X152292427Y-111538295D01*
X152292426Y-111538296D01*
X152285029Y-111575486D01*
X152285029Y-114200599D01*
X135540029Y-114200599D01*
X135540029Y-111575485D01*
X135532631Y-111538295D01*
X135504451Y-111496121D01*
X135504449Y-111496119D01*
X135483434Y-111482078D01*
X135462277Y-111467941D01*
X135462275Y-111467940D01*
X135434320Y-111462379D01*
X135425087Y-111460543D01*
X132799971Y-111460543D01*
X132792574Y-111462014D01*
X132762782Y-111467940D01*
X132762781Y-111467941D01*
X132720608Y-111496119D01*
X132720605Y-111496122D01*
X132692427Y-111538295D01*
X132692426Y-111538296D01*
X132685029Y-111575486D01*
X132685029Y-114200599D01*
X115940029Y-114200599D01*
X115940029Y-111575485D01*
X115932631Y-111538295D01*
X115904451Y-111496121D01*
X115904449Y-111496119D01*
X115883434Y-111482078D01*
X115862277Y-111467941D01*
X115862275Y-111467940D01*
X115834320Y-111462379D01*
X115825087Y-111460543D01*
X113199971Y-111460543D01*
X113192574Y-111462014D01*
X113162782Y-111467940D01*
X113162781Y-111467941D01*
X113120608Y-111496119D01*
X113120605Y-111496122D01*
X113092427Y-111538295D01*
X113092426Y-111538296D01*
X113085029Y-111575486D01*
X113085029Y-114200599D01*
X100462529Y-114200599D01*
X100462529Y-100940000D01*
X105777948Y-100940000D01*
X105796077Y-101077705D01*
X105849229Y-101206026D01*
X105933782Y-101316218D01*
X106043974Y-101400771D01*
X106172295Y-101453923D01*
X106310000Y-101472052D01*
X106447705Y-101453923D01*
X106576026Y-101400771D01*
X106686218Y-101316218D01*
X106770771Y-101206026D01*
X106823923Y-101077705D01*
X106830546Y-101027387D01*
X106833815Y-101020759D01*
X106914574Y-100940000D01*
X125377948Y-100940000D01*
X125396077Y-101077705D01*
X125449229Y-101206026D01*
X125533782Y-101316218D01*
X125643974Y-101400771D01*
X125772295Y-101453923D01*
X125910000Y-101472052D01*
X126047705Y-101453923D01*
X126176026Y-101400771D01*
X126286218Y-101316218D01*
X126370771Y-101206026D01*
X126423923Y-101077705D01*
X126430546Y-101027387D01*
X126433815Y-101020759D01*
X126514574Y-100940000D01*
X144977948Y-100940000D01*
X144996077Y-101077705D01*
X145049229Y-101206026D01*
X145133782Y-101316218D01*
X145243974Y-101400771D01*
X145372295Y-101453923D01*
X145510000Y-101472052D01*
X145647705Y-101453923D01*
X145776026Y-101400771D01*
X145886218Y-101316218D01*
X145970771Y-101206026D01*
X146023923Y-101077705D01*
X146030546Y-101027387D01*
X146033815Y-101020759D01*
X146552084Y-100502492D01*
X146608367Y-100405009D01*
X146637500Y-100296281D01*
X146637500Y-97071839D01*
X146640867Y-97063708D01*
X148490759Y-95213815D01*
X148497387Y-95210546D01*
X148547705Y-95203923D01*
X148676026Y-95150771D01*
X148786218Y-95066218D01*
X148870771Y-94956026D01*
X148923923Y-94827705D01*
X148942052Y-94690000D01*
X148923923Y-94552295D01*
X148870771Y-94423974D01*
X148786218Y-94313782D01*
X148676026Y-94229229D01*
X148547705Y-94176077D01*
X148410000Y-94157948D01*
X148272295Y-94176077D01*
X148143974Y-94229229D01*
X148033782Y-94313782D01*
X147949229Y-94423974D01*
X147896077Y-94552295D01*
X147889452Y-94602609D01*
X147886182Y-94609240D01*
X145947509Y-96547915D01*
X145867914Y-96627509D01*
X145811635Y-96724986D01*
X145811631Y-96724996D01*
X145782500Y-96833719D01*
X145782500Y-100058159D01*
X145779132Y-100066291D01*
X145429240Y-100416182D01*
X145422609Y-100419452D01*
X145372295Y-100426077D01*
X145243974Y-100479229D01*
X145133782Y-100563782D01*
X145049229Y-100673974D01*
X144996077Y-100802295D01*
X144977948Y-100940000D01*
X126514574Y-100940000D01*
X126952084Y-100502492D01*
X127008367Y-100405009D01*
X127037500Y-100296281D01*
X127037500Y-97071839D01*
X127040867Y-97063708D01*
X128890759Y-95213815D01*
X128897387Y-95210546D01*
X128947705Y-95203923D01*
X129076026Y-95150771D01*
X129186218Y-95066218D01*
X129270771Y-94956026D01*
X129323923Y-94827705D01*
X129342052Y-94690000D01*
X129323923Y-94552295D01*
X129270771Y-94423974D01*
X129186218Y-94313782D01*
X129076026Y-94229229D01*
X128947705Y-94176077D01*
X128810000Y-94157948D01*
X128672295Y-94176077D01*
X128543974Y-94229229D01*
X128433782Y-94313782D01*
X128349229Y-94423974D01*
X128296077Y-94552295D01*
X128289452Y-94602609D01*
X128286182Y-94609240D01*
X126347509Y-96547915D01*
X126267914Y-96627509D01*
X126211635Y-96724986D01*
X126211631Y-96724996D01*
X126182500Y-96833719D01*
X126182500Y-100058159D01*
X126179132Y-100066291D01*
X125829240Y-100416182D01*
X125822609Y-100419452D01*
X125772295Y-100426077D01*
X125643974Y-100479229D01*
X125533782Y-100563782D01*
X125449229Y-100673974D01*
X125396077Y-100802295D01*
X125377948Y-100940000D01*
X106914574Y-100940000D01*
X107352084Y-100502492D01*
X107408367Y-100405009D01*
X107437500Y-100296281D01*
X107437500Y-97071839D01*
X107440867Y-97063708D01*
X109290759Y-95213815D01*
X109297387Y-95210546D01*
X109347705Y-95203923D01*
X109476026Y-95150771D01*
X109586218Y-95066218D01*
X109670771Y-94956026D01*
X109723923Y-94827705D01*
X109742052Y-94690000D01*
X109723923Y-94552295D01*
X109670771Y-94423974D01*
X109586218Y-94313782D01*
X109476026Y-94229229D01*
X109347705Y-94176077D01*
X109210000Y-94157948D01*
X109072295Y-94176077D01*
X108943974Y-94229229D01*
X108833782Y-94313782D01*
X108749229Y-94423974D01*
X108696077Y-94552295D01*
X108689452Y-94602609D01*
X108686182Y-94609240D01*
X106747509Y-96547915D01*
X106667914Y-96627509D01*
X106611635Y-96724986D01*
X106611631Y-96724996D01*
X106582500Y-96833719D01*
X106582500Y-100058159D01*
X106579132Y-100066291D01*
X106229240Y-100416182D01*
X106222609Y-100419452D01*
X106172295Y-100426077D01*
X106043974Y-100479229D01*
X105933782Y-100563782D01*
X105849229Y-100673974D01*
X105796077Y-100802295D01*
X105777948Y-100940000D01*
X100462529Y-100940000D01*
X100462529Y-91960000D01*
X107723234Y-91960000D01*
X107741363Y-92097705D01*
X107794515Y-92226026D01*
X107879068Y-92336218D01*
X107989260Y-92420771D01*
X108117581Y-92473923D01*
X108255286Y-92492052D01*
X108392991Y-92473923D01*
X108521312Y-92420771D01*
X108631504Y-92336218D01*
X108716057Y-92226026D01*
X108769209Y-92097705D01*
X108775832Y-92047387D01*
X108779101Y-92040760D01*
X109080952Y-91738911D01*
X109089084Y-91735543D01*
X116750689Y-91735543D01*
X116758821Y-91738911D01*
X118531661Y-93511751D01*
X118535029Y-93519883D01*
X118535029Y-98174752D01*
X118532652Y-98181753D01*
X118501758Y-98222017D01*
X118448606Y-98350338D01*
X118430477Y-98488043D01*
X118448606Y-98625748D01*
X118501758Y-98754069D01*
X118586311Y-98864261D01*
X118696503Y-98948814D01*
X118824824Y-99001966D01*
X118962529Y-99020095D01*
X119100234Y-99001966D01*
X119228555Y-98948814D01*
X119338747Y-98864261D01*
X119423300Y-98754069D01*
X119476452Y-98625748D01*
X119494581Y-98488043D01*
X119476452Y-98350338D01*
X119423300Y-98222017D01*
X119392405Y-98181753D01*
X119390029Y-98174752D01*
X119390029Y-93281762D01*
X119360897Y-93173039D01*
X119360896Y-93173034D01*
X119304614Y-93075551D01*
X118196019Y-91966957D01*
X127325705Y-91966957D01*
X127343834Y-92104662D01*
X127396986Y-92232983D01*
X127481539Y-92343175D01*
X127591731Y-92427728D01*
X127720052Y-92480880D01*
X127857757Y-92499009D01*
X127995462Y-92480880D01*
X128123783Y-92427728D01*
X128233975Y-92343175D01*
X128318528Y-92232983D01*
X128371680Y-92104662D01*
X128378303Y-92054344D01*
X128381572Y-92047717D01*
X128683423Y-91745868D01*
X128691555Y-91742500D01*
X136357646Y-91742500D01*
X136365778Y-91745868D01*
X138131661Y-93511751D01*
X138135029Y-93519883D01*
X138135029Y-98174752D01*
X138132652Y-98181753D01*
X138101758Y-98222017D01*
X138048606Y-98350338D01*
X138030477Y-98488043D01*
X138048606Y-98625748D01*
X138101758Y-98754069D01*
X138186311Y-98864261D01*
X138296503Y-98948814D01*
X138424824Y-99001966D01*
X138562529Y-99020095D01*
X138700234Y-99001966D01*
X138828555Y-98948814D01*
X138938747Y-98864261D01*
X139023300Y-98754069D01*
X139076452Y-98625748D01*
X139094581Y-98488043D01*
X139076452Y-98350338D01*
X139023300Y-98222017D01*
X138992405Y-98181753D01*
X138990029Y-98174752D01*
X138990029Y-93281762D01*
X138960897Y-93173039D01*
X138960896Y-93173034D01*
X138904614Y-93075551D01*
X137814062Y-91985000D01*
X146928234Y-91985000D01*
X146946363Y-92122705D01*
X146999515Y-92251026D01*
X147084068Y-92361218D01*
X147194260Y-92445771D01*
X147322581Y-92498923D01*
X147460286Y-92517052D01*
X147597991Y-92498923D01*
X147726312Y-92445771D01*
X147836504Y-92361218D01*
X147921057Y-92251026D01*
X147974209Y-92122705D01*
X147980832Y-92072387D01*
X147984101Y-92065760D01*
X148285952Y-91763911D01*
X148294084Y-91760543D01*
X155975689Y-91760543D01*
X155983821Y-91763911D01*
X157731661Y-93511751D01*
X157735029Y-93519883D01*
X157735029Y-98174752D01*
X157732652Y-98181753D01*
X157701758Y-98222017D01*
X157648606Y-98350338D01*
X157630477Y-98488043D01*
X157648606Y-98625748D01*
X157701758Y-98754069D01*
X157786311Y-98864261D01*
X157896503Y-98948814D01*
X158024824Y-99001966D01*
X158162529Y-99020095D01*
X158300234Y-99001966D01*
X158428555Y-98948814D01*
X158538747Y-98864261D01*
X158623300Y-98754069D01*
X158676452Y-98625748D01*
X158694581Y-98488043D01*
X158676452Y-98350338D01*
X158623300Y-98222017D01*
X158592405Y-98181753D01*
X158590029Y-98174752D01*
X158590029Y-93281762D01*
X158560897Y-93173039D01*
X158560896Y-93173034D01*
X158504614Y-93075551D01*
X156513188Y-91084126D01*
X156511361Y-91081744D01*
X156504901Y-91070553D01*
X156425305Y-90990957D01*
X156327828Y-90934678D01*
X156327826Y-90934677D01*
X156327824Y-90934676D01*
X156327820Y-90934675D01*
X156327818Y-90934674D01*
X156219096Y-90905543D01*
X148055962Y-90905543D01*
X147947239Y-90934674D01*
X147947229Y-90934678D01*
X147849751Y-90990957D01*
X147379526Y-91461182D01*
X147372895Y-91464452D01*
X147322581Y-91471077D01*
X147194260Y-91524229D01*
X147084068Y-91608782D01*
X146999515Y-91718974D01*
X146946363Y-91847295D01*
X146928234Y-91985000D01*
X137814062Y-91985000D01*
X136931852Y-91102790D01*
X136930026Y-91100409D01*
X136920008Y-91083058D01*
X136902371Y-91052509D01*
X136822777Y-90972915D01*
X136822776Y-90972914D01*
X136725299Y-90916635D01*
X136725297Y-90916634D01*
X136725295Y-90916633D01*
X136725291Y-90916632D01*
X136725289Y-90916631D01*
X136616567Y-90887500D01*
X128453433Y-90887500D01*
X128367434Y-90910543D01*
X128344710Y-90916631D01*
X128344700Y-90916635D01*
X128247222Y-90972914D01*
X127776997Y-91443139D01*
X127770366Y-91446409D01*
X127720052Y-91453034D01*
X127591731Y-91506186D01*
X127481539Y-91590739D01*
X127396986Y-91700931D01*
X127343834Y-91829252D01*
X127325705Y-91966957D01*
X118196019Y-91966957D01*
X117335509Y-91106447D01*
X117333683Y-91104066D01*
X117332330Y-91101723D01*
X117299900Y-91045552D01*
X117220306Y-90965958D01*
X117220305Y-90965957D01*
X117122828Y-90909678D01*
X117122826Y-90909677D01*
X117122824Y-90909676D01*
X117122820Y-90909675D01*
X117122818Y-90909674D01*
X117014096Y-90880543D01*
X108850962Y-90880543D01*
X108742239Y-90909674D01*
X108742229Y-90909678D01*
X108644751Y-90965957D01*
X108174526Y-91436182D01*
X108167895Y-91439452D01*
X108118925Y-91445900D01*
X108117581Y-91446077D01*
X107989260Y-91499229D01*
X107879068Y-91583782D01*
X107794515Y-91693974D01*
X107741363Y-91822295D01*
X107723234Y-91960000D01*
X100462529Y-91960000D01*
X100462529Y-89740000D01*
X141667770Y-89740000D01*
X141686643Y-89931624D01*
X141686643Y-89931626D01*
X141686644Y-89931628D01*
X141742536Y-90115876D01*
X141742539Y-90115886D01*
X141833304Y-90285695D01*
X141833306Y-90285698D01*
X141955459Y-90434541D01*
X142104302Y-90556694D01*
X142274117Y-90647462D01*
X142458376Y-90703357D01*
X142650000Y-90722230D01*
X142841624Y-90703357D01*
X143025883Y-90647462D01*
X143195698Y-90556694D01*
X143344541Y-90434541D01*
X143466694Y-90285698D01*
X143557462Y-90115883D01*
X143613357Y-89931624D01*
X143632230Y-89740000D01*
X143613357Y-89548376D01*
X143576451Y-89426717D01*
X143577314Y-89417961D01*
X143579321Y-89415253D01*
X145781532Y-87213043D01*
X159470013Y-87213043D01*
X159488886Y-87404667D01*
X159540824Y-87575883D01*
X159544779Y-87588919D01*
X159544782Y-87588929D01*
X159628577Y-87745698D01*
X159635549Y-87758741D01*
X159757702Y-87907584D01*
X159906545Y-88029737D01*
X159906547Y-88029738D01*
X160051954Y-88107460D01*
X160076360Y-88120505D01*
X160260619Y-88176400D01*
X160452243Y-88195273D01*
X160643867Y-88176400D01*
X160828126Y-88120505D01*
X160997941Y-88029737D01*
X161146784Y-87907584D01*
X161268937Y-87758741D01*
X161359705Y-87588926D01*
X161415600Y-87404667D01*
X161434473Y-87213043D01*
X161415600Y-87021419D01*
X161359705Y-86837160D01*
X161268937Y-86667345D01*
X161146784Y-86518502D01*
X160997941Y-86396349D01*
X160997939Y-86396348D01*
X160997938Y-86396347D01*
X160828129Y-86305582D01*
X160828119Y-86305579D01*
X160643871Y-86249687D01*
X160643869Y-86249686D01*
X160643867Y-86249686D01*
X160452243Y-86230813D01*
X160260619Y-86249686D01*
X160260616Y-86249686D01*
X160260614Y-86249687D01*
X160076366Y-86305579D01*
X160076356Y-86305582D01*
X159906547Y-86396347D01*
X159757702Y-86518502D01*
X159635547Y-86667347D01*
X159544782Y-86837156D01*
X159544779Y-86837166D01*
X159488887Y-87021414D01*
X159488886Y-87021416D01*
X159488886Y-87021419D01*
X159470013Y-87213043D01*
X145781532Y-87213043D01*
X148321533Y-84673043D01*
X159470013Y-84673043D01*
X159488886Y-84864667D01*
X159488886Y-84864669D01*
X159488887Y-84864671D01*
X159544779Y-85048919D01*
X159544782Y-85048929D01*
X159635547Y-85218738D01*
X159635549Y-85218741D01*
X159757702Y-85367584D01*
X159906545Y-85489737D01*
X160076360Y-85580505D01*
X160260619Y-85636400D01*
X160452243Y-85655273D01*
X160643867Y-85636400D01*
X160828126Y-85580505D01*
X160997941Y-85489737D01*
X161146784Y-85367584D01*
X161268937Y-85218741D01*
X161359705Y-85048926D01*
X161415600Y-84864667D01*
X161434473Y-84673043D01*
X161415600Y-84481419D01*
X161359705Y-84297160D01*
X161268937Y-84127345D01*
X161146784Y-83978502D01*
X160997941Y-83856349D01*
X160997939Y-83856348D01*
X160997938Y-83856347D01*
X160828129Y-83765582D01*
X160828119Y-83765579D01*
X160643871Y-83709687D01*
X160643869Y-83709686D01*
X160643867Y-83709686D01*
X160452243Y-83690813D01*
X160260619Y-83709686D01*
X160260616Y-83709686D01*
X160260614Y-83709687D01*
X160076366Y-83765579D01*
X160076356Y-83765582D01*
X159906547Y-83856347D01*
X159757702Y-83978502D01*
X159635547Y-84127347D01*
X159544782Y-84297156D01*
X159544779Y-84297166D01*
X159488887Y-84481414D01*
X159488886Y-84481416D01*
X159488886Y-84481419D01*
X159470013Y-84673043D01*
X148321533Y-84673043D01*
X149684614Y-83309963D01*
X149740896Y-83212480D01*
X149770029Y-83103753D01*
X149770029Y-82991190D01*
X149767892Y-82983214D01*
X149767500Y-82980238D01*
X149767500Y-82133043D01*
X159470013Y-82133043D01*
X159488886Y-82324667D01*
X159540824Y-82495883D01*
X159544779Y-82508919D01*
X159544782Y-82508929D01*
X159628577Y-82665698D01*
X159635549Y-82678741D01*
X159757702Y-82827584D01*
X159906545Y-82949737D01*
X159906547Y-82949738D01*
X160051954Y-83027460D01*
X160076360Y-83040505D01*
X160260619Y-83096400D01*
X160452243Y-83115273D01*
X160643867Y-83096400D01*
X160828126Y-83040505D01*
X160997941Y-82949737D01*
X161146784Y-82827584D01*
X161268937Y-82678741D01*
X161359705Y-82508926D01*
X161415600Y-82324667D01*
X161434473Y-82133043D01*
X161415600Y-81941419D01*
X161359705Y-81757160D01*
X161268937Y-81587345D01*
X161146784Y-81438502D01*
X160997941Y-81316349D01*
X160997939Y-81316348D01*
X160997938Y-81316347D01*
X160828129Y-81225582D01*
X160828119Y-81225579D01*
X160643871Y-81169687D01*
X160643869Y-81169686D01*
X160643867Y-81169686D01*
X160452243Y-81150813D01*
X160260619Y-81169686D01*
X160260616Y-81169686D01*
X160260614Y-81169687D01*
X160076366Y-81225579D01*
X160076356Y-81225582D01*
X159906547Y-81316347D01*
X159757702Y-81438502D01*
X159635547Y-81587347D01*
X159544782Y-81757156D01*
X159544779Y-81757166D01*
X159488887Y-81941414D01*
X159488886Y-81941416D01*
X159488886Y-81941419D01*
X159470013Y-82133043D01*
X149767500Y-82133043D01*
X149767500Y-80455599D01*
X159474743Y-80455599D01*
X159482140Y-80492789D01*
X159482141Y-80492791D01*
X159496278Y-80513948D01*
X159510319Y-80534963D01*
X159510321Y-80534965D01*
X159552495Y-80563145D01*
X159589685Y-80570543D01*
X159589686Y-80570543D01*
X161314800Y-80570543D01*
X161314801Y-80570543D01*
X161351991Y-80563145D01*
X161394165Y-80534965D01*
X161422345Y-80492791D01*
X161429743Y-80455601D01*
X161429743Y-78730485D01*
X161422345Y-78693295D01*
X161394165Y-78651121D01*
X161394163Y-78651119D01*
X161373148Y-78637078D01*
X161351991Y-78622941D01*
X161351989Y-78622940D01*
X161324034Y-78617379D01*
X161314801Y-78615543D01*
X159589685Y-78615543D01*
X159584150Y-78616644D01*
X159552496Y-78622940D01*
X159552495Y-78622941D01*
X159510322Y-78651119D01*
X159510319Y-78651122D01*
X159482141Y-78693295D01*
X159482140Y-78693296D01*
X159474743Y-78730486D01*
X159474743Y-80455599D01*
X149767500Y-80455599D01*
X149767500Y-78254775D01*
X149770868Y-78246643D01*
X149771374Y-78246167D01*
X149813135Y-78209170D01*
X149813140Y-78209166D01*
X149899705Y-78083756D01*
X149953741Y-77941274D01*
X149970584Y-77802558D01*
X149970584Y-77802556D01*
X169602500Y-77802556D01*
X169609897Y-77839746D01*
X169609898Y-77839748D01*
X169615053Y-77847463D01*
X169638076Y-77881920D01*
X169638078Y-77881922D01*
X169680252Y-77910102D01*
X169717442Y-77917500D01*
X169717443Y-77917500D01*
X171442557Y-77917500D01*
X171442558Y-77917500D01*
X171479748Y-77910102D01*
X171521922Y-77881922D01*
X171550102Y-77839748D01*
X171557500Y-77802558D01*
X171557500Y-76940000D01*
X172137770Y-76940000D01*
X172156643Y-77131624D01*
X172198554Y-77269786D01*
X172212536Y-77315876D01*
X172212539Y-77315886D01*
X172274755Y-77432283D01*
X172303306Y-77485698D01*
X172425459Y-77634541D01*
X172574302Y-77756694D01*
X172574304Y-77756695D01*
X172660107Y-77802558D01*
X172744117Y-77847462D01*
X172928376Y-77903357D01*
X173120000Y-77922230D01*
X173311624Y-77903357D01*
X173495883Y-77847462D01*
X173665698Y-77756694D01*
X173814541Y-77634541D01*
X173936694Y-77485698D01*
X174027462Y-77315883D01*
X174083357Y-77131624D01*
X174102230Y-76940000D01*
X174677770Y-76940000D01*
X174696643Y-77131624D01*
X174738554Y-77269786D01*
X174752536Y-77315876D01*
X174752539Y-77315886D01*
X174814755Y-77432283D01*
X174843306Y-77485698D01*
X174965459Y-77634541D01*
X175114302Y-77756694D01*
X175114304Y-77756695D01*
X175200107Y-77802558D01*
X175284117Y-77847462D01*
X175468376Y-77903357D01*
X175660000Y-77922230D01*
X175851624Y-77903357D01*
X176035883Y-77847462D01*
X176205698Y-77756694D01*
X176354541Y-77634541D01*
X176476694Y-77485698D01*
X176567462Y-77315883D01*
X176623357Y-77131624D01*
X176642230Y-76940000D01*
X177217770Y-76940000D01*
X177236643Y-77131624D01*
X177278554Y-77269786D01*
X177292536Y-77315876D01*
X177292539Y-77315886D01*
X177354755Y-77432283D01*
X177383306Y-77485698D01*
X177505459Y-77634541D01*
X177654302Y-77756694D01*
X177654304Y-77756695D01*
X177740107Y-77802558D01*
X177824117Y-77847462D01*
X178008376Y-77903357D01*
X178200000Y-77922230D01*
X178391624Y-77903357D01*
X178575883Y-77847462D01*
X178745698Y-77756694D01*
X178894541Y-77634541D01*
X179016694Y-77485698D01*
X179107462Y-77315883D01*
X179163357Y-77131624D01*
X179182230Y-76940000D01*
X179757770Y-76940000D01*
X179776643Y-77131624D01*
X179818554Y-77269786D01*
X179832536Y-77315876D01*
X179832539Y-77315886D01*
X179894755Y-77432283D01*
X179923306Y-77485698D01*
X180045459Y-77634541D01*
X180194302Y-77756694D01*
X180194304Y-77756695D01*
X180280107Y-77802558D01*
X180364117Y-77847462D01*
X180548376Y-77903357D01*
X180740000Y-77922230D01*
X180931624Y-77903357D01*
X181115883Y-77847462D01*
X181285698Y-77756694D01*
X181434541Y-77634541D01*
X181556694Y-77485698D01*
X181647462Y-77315883D01*
X181703357Y-77131624D01*
X181722230Y-76940000D01*
X181703357Y-76748376D01*
X181647462Y-76564117D01*
X181556694Y-76394302D01*
X181434541Y-76245459D01*
X181285698Y-76123306D01*
X181285696Y-76123305D01*
X181285695Y-76123304D01*
X181115886Y-76032539D01*
X181115876Y-76032536D01*
X180931628Y-75976644D01*
X180931626Y-75976643D01*
X180931624Y-75976643D01*
X180740000Y-75957770D01*
X180548376Y-75976643D01*
X180548373Y-75976643D01*
X180548371Y-75976644D01*
X180364123Y-76032536D01*
X180364113Y-76032539D01*
X180194304Y-76123304D01*
X180045459Y-76245459D01*
X179923304Y-76394304D01*
X179832539Y-76564113D01*
X179832536Y-76564123D01*
X179776644Y-76748371D01*
X179776643Y-76748373D01*
X179776643Y-76748376D01*
X179757770Y-76940000D01*
X179182230Y-76940000D01*
X179163357Y-76748376D01*
X179107462Y-76564117D01*
X179016694Y-76394302D01*
X178894541Y-76245459D01*
X178745698Y-76123306D01*
X178745696Y-76123305D01*
X178745695Y-76123304D01*
X178575886Y-76032539D01*
X178575876Y-76032536D01*
X178391628Y-75976644D01*
X178391626Y-75976643D01*
X178391624Y-75976643D01*
X178200000Y-75957770D01*
X178008376Y-75976643D01*
X178008373Y-75976643D01*
X178008371Y-75976644D01*
X177824123Y-76032536D01*
X177824113Y-76032539D01*
X177654304Y-76123304D01*
X177505459Y-76245459D01*
X177383304Y-76394304D01*
X177292539Y-76564113D01*
X177292536Y-76564123D01*
X177236644Y-76748371D01*
X177236643Y-76748373D01*
X177236643Y-76748376D01*
X177217770Y-76940000D01*
X176642230Y-76940000D01*
X176623357Y-76748376D01*
X176567462Y-76564117D01*
X176476694Y-76394302D01*
X176354541Y-76245459D01*
X176205698Y-76123306D01*
X176205696Y-76123305D01*
X176205695Y-76123304D01*
X176035886Y-76032539D01*
X176035876Y-76032536D01*
X175851628Y-75976644D01*
X175851626Y-75976643D01*
X175851624Y-75976643D01*
X175660000Y-75957770D01*
X175468376Y-75976643D01*
X175468373Y-75976643D01*
X175468371Y-75976644D01*
X175284123Y-76032536D01*
X175284113Y-76032539D01*
X175114304Y-76123304D01*
X174965459Y-76245459D01*
X174843304Y-76394304D01*
X174752539Y-76564113D01*
X174752536Y-76564123D01*
X174696644Y-76748371D01*
X174696643Y-76748373D01*
X174696643Y-76748376D01*
X174677770Y-76940000D01*
X174102230Y-76940000D01*
X174083357Y-76748376D01*
X174027462Y-76564117D01*
X173936694Y-76394302D01*
X173814541Y-76245459D01*
X173665698Y-76123306D01*
X173665696Y-76123305D01*
X173665695Y-76123304D01*
X173495886Y-76032539D01*
X173495876Y-76032536D01*
X173311628Y-75976644D01*
X173311626Y-75976643D01*
X173311624Y-75976643D01*
X173120000Y-75957770D01*
X172928376Y-75976643D01*
X172928373Y-75976643D01*
X172928371Y-75976644D01*
X172744123Y-76032536D01*
X172744113Y-76032539D01*
X172574304Y-76123304D01*
X172425459Y-76245459D01*
X172303304Y-76394304D01*
X172212539Y-76564113D01*
X172212536Y-76564123D01*
X172156644Y-76748371D01*
X172156643Y-76748373D01*
X172156643Y-76748376D01*
X172137770Y-76940000D01*
X171557500Y-76940000D01*
X171557500Y-76077442D01*
X171550102Y-76040252D01*
X171521922Y-75998078D01*
X171521920Y-75998076D01*
X171500905Y-75984035D01*
X171479748Y-75969898D01*
X171479746Y-75969897D01*
X171451791Y-75964336D01*
X171442558Y-75962500D01*
X169717442Y-75962500D01*
X169710045Y-75963971D01*
X169680253Y-75969897D01*
X169680252Y-75969898D01*
X169638079Y-75998076D01*
X169638076Y-75998079D01*
X169609898Y-76040252D01*
X169609897Y-76040253D01*
X169602500Y-76077443D01*
X169602500Y-77802556D01*
X149970584Y-77802556D01*
X149972109Y-77790001D01*
X149972109Y-77789998D01*
X149955201Y-77650748D01*
X149953741Y-77638726D01*
X149899705Y-77496244D01*
X149813140Y-77370834D01*
X149813137Y-77370831D01*
X149813135Y-77370829D01*
X149699081Y-77269786D01*
X149699079Y-77269784D01*
X149564149Y-77198968D01*
X149416192Y-77162500D01*
X149263808Y-77162500D01*
X149115851Y-77198968D01*
X149115849Y-77198969D01*
X148980922Y-77269783D01*
X148980918Y-77269786D01*
X148866864Y-77370829D01*
X148866858Y-77370836D01*
X148787574Y-77485698D01*
X148780295Y-77496244D01*
X148727847Y-77634541D01*
X148726259Y-77638727D01*
X148726258Y-77638728D01*
X148707891Y-77789998D01*
X148707891Y-77790001D01*
X148726258Y-77941271D01*
X148726259Y-77941274D01*
X148780295Y-78083756D01*
X148866860Y-78209166D01*
X148866862Y-78209168D01*
X148866864Y-78209170D01*
X148908626Y-78246167D01*
X148912479Y-78254080D01*
X148912500Y-78254775D01*
X148912500Y-82868159D01*
X148909132Y-82876291D01*
X142974748Y-88810674D01*
X142966616Y-88814042D01*
X142963279Y-88813547D01*
X142903973Y-88795556D01*
X142841628Y-88776644D01*
X142841626Y-88776643D01*
X142841624Y-88776643D01*
X142650000Y-88757770D01*
X142458376Y-88776643D01*
X142458373Y-88776643D01*
X142458371Y-88776644D01*
X142274123Y-88832536D01*
X142274113Y-88832539D01*
X142104304Y-88923304D01*
X141955459Y-89045459D01*
X141833304Y-89194304D01*
X141742539Y-89364113D01*
X141742536Y-89364123D01*
X141686644Y-89548371D01*
X141686643Y-89548373D01*
X141686643Y-89548376D01*
X141667770Y-89740000D01*
X100462529Y-89740000D01*
X100462529Y-88215572D01*
X130732434Y-88215572D01*
X130750563Y-88353277D01*
X130803715Y-88481598D01*
X130888268Y-88591790D01*
X130998460Y-88676343D01*
X131126781Y-88729495D01*
X131264486Y-88747624D01*
X131402191Y-88729495D01*
X131530512Y-88676343D01*
X131570775Y-88645447D01*
X131577776Y-88643072D01*
X136470767Y-88643072D01*
X136579495Y-88613939D01*
X136676977Y-88557657D01*
X138034635Y-87200000D01*
X141667770Y-87200000D01*
X141686643Y-87391624D01*
X141686643Y-87391626D01*
X141686644Y-87391628D01*
X141742536Y-87575876D01*
X141742539Y-87575886D01*
X141749511Y-87588929D01*
X141833306Y-87745698D01*
X141955459Y-87894541D01*
X142104302Y-88016694D01*
X142274117Y-88107462D01*
X142458376Y-88163357D01*
X142650000Y-88182230D01*
X142841624Y-88163357D01*
X143025883Y-88107462D01*
X143195698Y-88016694D01*
X143344541Y-87894541D01*
X143466694Y-87745698D01*
X143557462Y-87575883D01*
X143613357Y-87391624D01*
X143632230Y-87200000D01*
X143613357Y-87008376D01*
X143557462Y-86824117D01*
X143466694Y-86654302D01*
X143344541Y-86505459D01*
X143195698Y-86383306D01*
X143195696Y-86383305D01*
X143195695Y-86383304D01*
X143025886Y-86292539D01*
X143025876Y-86292536D01*
X142841628Y-86236644D01*
X142841626Y-86236643D01*
X142841624Y-86236643D01*
X142650000Y-86217770D01*
X142458376Y-86236643D01*
X142458373Y-86236643D01*
X142458371Y-86236644D01*
X142274123Y-86292536D01*
X142274113Y-86292539D01*
X142104304Y-86383304D01*
X141955459Y-86505459D01*
X141833304Y-86654304D01*
X141742539Y-86824113D01*
X141742536Y-86824123D01*
X141686644Y-87008371D01*
X141686643Y-87008373D01*
X141686643Y-87008376D01*
X141667770Y-87200000D01*
X138034635Y-87200000D01*
X138756571Y-86478064D01*
X138812853Y-86380581D01*
X138841986Y-86271854D01*
X138841986Y-86159291D01*
X138841986Y-82120000D01*
X141667770Y-82120000D01*
X141686643Y-82311624D01*
X141686643Y-82311626D01*
X141686644Y-82311628D01*
X141742536Y-82495876D01*
X141742539Y-82495886D01*
X141749511Y-82508929D01*
X141833306Y-82665698D01*
X141955459Y-82814541D01*
X142104302Y-82936694D01*
X142274117Y-83027462D01*
X142458376Y-83083357D01*
X142650000Y-83102230D01*
X142841624Y-83083357D01*
X143025883Y-83027462D01*
X143195698Y-82936694D01*
X143344541Y-82814541D01*
X143466694Y-82665698D01*
X143557462Y-82495883D01*
X143613357Y-82311624D01*
X143632230Y-82120000D01*
X143613357Y-81928376D01*
X143557462Y-81744117D01*
X143466694Y-81574302D01*
X143344541Y-81425459D01*
X143195698Y-81303306D01*
X143195696Y-81303305D01*
X143195695Y-81303304D01*
X143025886Y-81212539D01*
X143025876Y-81212536D01*
X142841628Y-81156644D01*
X142841626Y-81156643D01*
X142841624Y-81156643D01*
X142650000Y-81137770D01*
X142458376Y-81156643D01*
X142458373Y-81156643D01*
X142458371Y-81156644D01*
X142274123Y-81212536D01*
X142274113Y-81212539D01*
X142104304Y-81303304D01*
X141955459Y-81425459D01*
X141833304Y-81574304D01*
X141742539Y-81744113D01*
X141742536Y-81744123D01*
X141686644Y-81928371D01*
X141686643Y-81928373D01*
X141686643Y-81928376D01*
X141667770Y-82120000D01*
X138841986Y-82120000D01*
X138841986Y-79580000D01*
X141667770Y-79580000D01*
X141686643Y-79771624D01*
X141686643Y-79771626D01*
X141686644Y-79771628D01*
X141742536Y-79955876D01*
X141742539Y-79955886D01*
X141833304Y-80125695D01*
X141833306Y-80125698D01*
X141955459Y-80274541D01*
X142104302Y-80396694D01*
X142104304Y-80396695D01*
X142214505Y-80455599D01*
X142274117Y-80487462D01*
X142458376Y-80543357D01*
X142650000Y-80562230D01*
X142841624Y-80543357D01*
X143025883Y-80487462D01*
X143195698Y-80396694D01*
X143344541Y-80274541D01*
X143466694Y-80125698D01*
X143557462Y-79955883D01*
X143613357Y-79771624D01*
X143632230Y-79580000D01*
X143613357Y-79388376D01*
X143557462Y-79204117D01*
X143466694Y-79034302D01*
X143344541Y-78885459D01*
X143195698Y-78763306D01*
X143195696Y-78763305D01*
X143195695Y-78763304D01*
X143025886Y-78672539D01*
X143025876Y-78672536D01*
X142841628Y-78616644D01*
X142841626Y-78616643D01*
X142841624Y-78616643D01*
X142650000Y-78597770D01*
X142458376Y-78616643D01*
X142458373Y-78616643D01*
X142458371Y-78616644D01*
X142274123Y-78672536D01*
X142274113Y-78672539D01*
X142104304Y-78763304D01*
X141955459Y-78885459D01*
X141833304Y-79034304D01*
X141742539Y-79204113D01*
X141742536Y-79204123D01*
X141686644Y-79388371D01*
X141686643Y-79388373D01*
X141686643Y-79388376D01*
X141667770Y-79580000D01*
X138841986Y-79580000D01*
X138841986Y-78108719D01*
X138812853Y-77999991D01*
X138797740Y-77973814D01*
X138756600Y-77902558D01*
X141672500Y-77902558D01*
X141674001Y-77910102D01*
X141679897Y-77939746D01*
X141679898Y-77939748D01*
X141694035Y-77960905D01*
X141708076Y-77981920D01*
X141708078Y-77981922D01*
X141750252Y-78010102D01*
X141787442Y-78017500D01*
X141787443Y-78017500D01*
X143512557Y-78017500D01*
X143512558Y-78017500D01*
X143549748Y-78010102D01*
X143591922Y-77981922D01*
X143620102Y-77939748D01*
X143627500Y-77902558D01*
X143627500Y-76177442D01*
X143620102Y-76140252D01*
X143591922Y-76098078D01*
X143591920Y-76098076D01*
X143570238Y-76083589D01*
X143549748Y-76069898D01*
X143549746Y-76069897D01*
X143521791Y-76064336D01*
X143512558Y-76062500D01*
X141787442Y-76062500D01*
X141780045Y-76063971D01*
X141750253Y-76069897D01*
X141750252Y-76069898D01*
X141708079Y-76098076D01*
X141708076Y-76098079D01*
X141679898Y-76140252D01*
X141679897Y-76140253D01*
X141673971Y-76170045D01*
X141672500Y-76177442D01*
X141672500Y-77902558D01*
X138756600Y-77902558D01*
X138756571Y-77902508D01*
X138286344Y-77432282D01*
X138283075Y-77425652D01*
X138276452Y-77375338D01*
X138223300Y-77247017D01*
X138138747Y-77136825D01*
X138028555Y-77052272D01*
X137900234Y-76999120D01*
X137762529Y-76980991D01*
X137624824Y-76999120D01*
X137496503Y-77052272D01*
X137386311Y-77136825D01*
X137301758Y-77247017D01*
X137248606Y-77375338D01*
X137230477Y-77513043D01*
X137248606Y-77650748D01*
X137301758Y-77779069D01*
X137386311Y-77889261D01*
X137496503Y-77973814D01*
X137624824Y-78026966D01*
X137675139Y-78033589D01*
X137681769Y-78036859D01*
X137983618Y-78338708D01*
X137986986Y-78346840D01*
X137986986Y-86033731D01*
X137983618Y-86041863D01*
X136240778Y-87784704D01*
X136232646Y-87788072D01*
X131577776Y-87788072D01*
X131570775Y-87785696D01*
X131530512Y-87754801D01*
X131402191Y-87701649D01*
X131264486Y-87683520D01*
X131126781Y-87701649D01*
X130998460Y-87754801D01*
X130888268Y-87839354D01*
X130803715Y-87949546D01*
X130750563Y-88077867D01*
X130732434Y-88215572D01*
X100462529Y-88215572D01*
X100462529Y-84735235D01*
X119507500Y-84735235D01*
X119517583Y-84785937D01*
X119520727Y-84793526D01*
X119520952Y-84794069D01*
X119549676Y-84837060D01*
X120042940Y-85330324D01*
X120085931Y-85359048D01*
X120090918Y-85361113D01*
X120094062Y-85362416D01*
X120119413Y-85367458D01*
X120144764Y-85372500D01*
X120144765Y-85372500D01*
X122135235Y-85372500D01*
X122135236Y-85372500D01*
X122185937Y-85362416D01*
X122194069Y-85359048D01*
X122237060Y-85330324D01*
X122730324Y-84837060D01*
X122759048Y-84794069D01*
X122762416Y-84785937D01*
X122772500Y-84735236D01*
X122772500Y-75563043D01*
X128280477Y-75563043D01*
X128298606Y-75700748D01*
X128351758Y-75829069D01*
X128436311Y-75939261D01*
X128546503Y-76023814D01*
X128674824Y-76076966D01*
X128725139Y-76083589D01*
X128731769Y-76086859D01*
X129170444Y-76525534D01*
X129250038Y-76605128D01*
X129347520Y-76661410D01*
X129456248Y-76690543D01*
X132680689Y-76690543D01*
X132688821Y-76693911D01*
X134538711Y-78543801D01*
X134541981Y-78550432D01*
X134547257Y-78590503D01*
X134548606Y-78600748D01*
X134601758Y-78729069D01*
X134686311Y-78839261D01*
X134796503Y-78923814D01*
X134924824Y-78976966D01*
X135062529Y-78995095D01*
X135200234Y-78976966D01*
X135328555Y-78923814D01*
X135438747Y-78839261D01*
X135523300Y-78729069D01*
X135576452Y-78600748D01*
X135594581Y-78463043D01*
X135576452Y-78325338D01*
X135523300Y-78197017D01*
X135438747Y-78086825D01*
X135328555Y-78002272D01*
X135200234Y-77949120D01*
X135189989Y-77947771D01*
X135149918Y-77942495D01*
X135143287Y-77939225D01*
X133125019Y-75920957D01*
X133027542Y-75864678D01*
X133027540Y-75864677D01*
X133027538Y-75864676D01*
X133027534Y-75864675D01*
X133027532Y-75864674D01*
X132918810Y-75835543D01*
X129694369Y-75835543D01*
X129686237Y-75832175D01*
X129336345Y-75482283D01*
X129333075Y-75475652D01*
X129326452Y-75425338D01*
X129273300Y-75297017D01*
X129188747Y-75186825D01*
X129078555Y-75102272D01*
X128950234Y-75049120D01*
X128812529Y-75030991D01*
X128674824Y-75049120D01*
X128546503Y-75102272D01*
X128436311Y-75186825D01*
X128351758Y-75297017D01*
X128298606Y-75425338D01*
X128280477Y-75563043D01*
X122772500Y-75563043D01*
X122772500Y-72804663D01*
X122775868Y-72796531D01*
X122776342Y-72796083D01*
X124599386Y-71175599D01*
X128045029Y-71175599D01*
X128052426Y-71212789D01*
X128052427Y-71212791D01*
X128057582Y-71220506D01*
X128080605Y-71254963D01*
X128080607Y-71254965D01*
X128122781Y-71283145D01*
X128159971Y-71290543D01*
X128159972Y-71290543D01*
X129885086Y-71290543D01*
X129885087Y-71290543D01*
X129922277Y-71283145D01*
X129964451Y-71254965D01*
X129992631Y-71212791D01*
X130000029Y-71175601D01*
X130000029Y-70313043D01*
X130580299Y-70313043D01*
X130599172Y-70504667D01*
X130599172Y-70504669D01*
X130599173Y-70504671D01*
X130655065Y-70688919D01*
X130655068Y-70688929D01*
X130745757Y-70858595D01*
X130745835Y-70858741D01*
X130867988Y-71007584D01*
X131016831Y-71129737D01*
X131016833Y-71129738D01*
X131102636Y-71175601D01*
X131186646Y-71220505D01*
X131370905Y-71276400D01*
X131562529Y-71295273D01*
X131754153Y-71276400D01*
X131938412Y-71220505D01*
X132108227Y-71129737D01*
X132257070Y-71007584D01*
X132379223Y-70858741D01*
X132469991Y-70688926D01*
X132525886Y-70504667D01*
X132544759Y-70313043D01*
X133120299Y-70313043D01*
X133139172Y-70504667D01*
X133139172Y-70504669D01*
X133139173Y-70504671D01*
X133195065Y-70688919D01*
X133195068Y-70688929D01*
X133285757Y-70858595D01*
X133285835Y-70858741D01*
X133407988Y-71007584D01*
X133556831Y-71129737D01*
X133556833Y-71129738D01*
X133642636Y-71175601D01*
X133726646Y-71220505D01*
X133910905Y-71276400D01*
X134102529Y-71295273D01*
X134294153Y-71276400D01*
X134478412Y-71220505D01*
X134648227Y-71129737D01*
X134797070Y-71007584D01*
X134919223Y-70858741D01*
X135009991Y-70688926D01*
X135065886Y-70504667D01*
X135084759Y-70313043D01*
X135660299Y-70313043D01*
X135679172Y-70504667D01*
X135679172Y-70504669D01*
X135679173Y-70504671D01*
X135735065Y-70688919D01*
X135735068Y-70688929D01*
X135825757Y-70858595D01*
X135825835Y-70858741D01*
X135947988Y-71007584D01*
X136096831Y-71129737D01*
X136096833Y-71129738D01*
X136182636Y-71175601D01*
X136266646Y-71220505D01*
X136450905Y-71276400D01*
X136642529Y-71295273D01*
X136834153Y-71276400D01*
X137018412Y-71220505D01*
X137188227Y-71129737D01*
X137337070Y-71007584D01*
X137459223Y-70858741D01*
X137549991Y-70688926D01*
X137605886Y-70504667D01*
X137624759Y-70313043D01*
X140740299Y-70313043D01*
X140759172Y-70504667D01*
X140759172Y-70504669D01*
X140759173Y-70504671D01*
X140815065Y-70688919D01*
X140815068Y-70688929D01*
X140905757Y-70858595D01*
X140905835Y-70858741D01*
X141027988Y-71007584D01*
X141176831Y-71129737D01*
X141176833Y-71129738D01*
X141262636Y-71175601D01*
X141346646Y-71220505D01*
X141530905Y-71276400D01*
X141722529Y-71295273D01*
X141914153Y-71276400D01*
X142098412Y-71220505D01*
X142268227Y-71129737D01*
X142417070Y-71007584D01*
X142539223Y-70858741D01*
X142629991Y-70688926D01*
X142685886Y-70504667D01*
X142704759Y-70313043D01*
X143280299Y-70313043D01*
X143299172Y-70504667D01*
X143299172Y-70504669D01*
X143299173Y-70504671D01*
X143355065Y-70688919D01*
X143355068Y-70688929D01*
X143445757Y-70858595D01*
X143445835Y-70858741D01*
X143567988Y-71007584D01*
X143716831Y-71129737D01*
X143716833Y-71129738D01*
X143802636Y-71175601D01*
X143886646Y-71220505D01*
X144070905Y-71276400D01*
X144262529Y-71295273D01*
X144454153Y-71276400D01*
X144638412Y-71220505D01*
X144808227Y-71129737D01*
X144957070Y-71007584D01*
X145079223Y-70858741D01*
X145169991Y-70688926D01*
X145225886Y-70504667D01*
X145244759Y-70313043D01*
X145820299Y-70313043D01*
X145839172Y-70504667D01*
X145839172Y-70504669D01*
X145839173Y-70504671D01*
X145895065Y-70688919D01*
X145895068Y-70688929D01*
X145985757Y-70858595D01*
X145985835Y-70858741D01*
X146107988Y-71007584D01*
X146256831Y-71129737D01*
X146256833Y-71129738D01*
X146342636Y-71175601D01*
X146426646Y-71220505D01*
X146610905Y-71276400D01*
X146802529Y-71295273D01*
X146994153Y-71276400D01*
X147178412Y-71220505D01*
X147348227Y-71129737D01*
X147497070Y-71007584D01*
X147619223Y-70858741D01*
X147709991Y-70688926D01*
X147765886Y-70504667D01*
X147784759Y-70313043D01*
X148360299Y-70313043D01*
X148379172Y-70504667D01*
X148379172Y-70504669D01*
X148379173Y-70504671D01*
X148435065Y-70688919D01*
X148435068Y-70688929D01*
X148525757Y-70858595D01*
X148525835Y-70858741D01*
X148647988Y-71007584D01*
X148796831Y-71129737D01*
X148796833Y-71129738D01*
X148882636Y-71175601D01*
X148966646Y-71220505D01*
X149150905Y-71276400D01*
X149342529Y-71295273D01*
X149534153Y-71276400D01*
X149718412Y-71220505D01*
X149888227Y-71129737D01*
X150037070Y-71007584D01*
X150159223Y-70858741D01*
X150249991Y-70688926D01*
X150305886Y-70504667D01*
X150324759Y-70313043D01*
X150900299Y-70313043D01*
X150919172Y-70504667D01*
X150919172Y-70504669D01*
X150919173Y-70504671D01*
X150975065Y-70688919D01*
X150975068Y-70688929D01*
X151065757Y-70858595D01*
X151065835Y-70858741D01*
X151187988Y-71007584D01*
X151336831Y-71129737D01*
X151336833Y-71129738D01*
X151422636Y-71175601D01*
X151506646Y-71220505D01*
X151690905Y-71276400D01*
X151882529Y-71295273D01*
X152074153Y-71276400D01*
X152258412Y-71220505D01*
X152428227Y-71129737D01*
X152577070Y-71007584D01*
X152699223Y-70858741D01*
X152789991Y-70688926D01*
X152845886Y-70504667D01*
X152864759Y-70313043D01*
X153440299Y-70313043D01*
X153459172Y-70504667D01*
X153459172Y-70504669D01*
X153459173Y-70504671D01*
X153515065Y-70688919D01*
X153515068Y-70688929D01*
X153605757Y-70858595D01*
X153605835Y-70858741D01*
X153727988Y-71007584D01*
X153876831Y-71129737D01*
X153876833Y-71129738D01*
X153962636Y-71175601D01*
X154046646Y-71220505D01*
X154230905Y-71276400D01*
X154422529Y-71295273D01*
X154614153Y-71276400D01*
X154798412Y-71220505D01*
X154968227Y-71129737D01*
X155117070Y-71007584D01*
X155239223Y-70858741D01*
X155329991Y-70688926D01*
X155385886Y-70504667D01*
X155404759Y-70313043D01*
X155980299Y-70313043D01*
X155999172Y-70504667D01*
X155999172Y-70504669D01*
X155999173Y-70504671D01*
X156055065Y-70688919D01*
X156055068Y-70688929D01*
X156145757Y-70858595D01*
X156145835Y-70858741D01*
X156267988Y-71007584D01*
X156416831Y-71129737D01*
X156416833Y-71129738D01*
X156502636Y-71175601D01*
X156586646Y-71220505D01*
X156770905Y-71276400D01*
X156962529Y-71295273D01*
X157154153Y-71276400D01*
X157338412Y-71220505D01*
X157508227Y-71129737D01*
X157657070Y-71007584D01*
X157779223Y-70858741D01*
X157869991Y-70688926D01*
X157925886Y-70504667D01*
X157944759Y-70313043D01*
X161060299Y-70313043D01*
X161079172Y-70504667D01*
X161079172Y-70504669D01*
X161079173Y-70504671D01*
X161135065Y-70688919D01*
X161135068Y-70688929D01*
X161225757Y-70858595D01*
X161225835Y-70858741D01*
X161347988Y-71007584D01*
X161496831Y-71129737D01*
X161496833Y-71129738D01*
X161582636Y-71175601D01*
X161666646Y-71220505D01*
X161850905Y-71276400D01*
X162042529Y-71295273D01*
X162234153Y-71276400D01*
X162418412Y-71220505D01*
X162588227Y-71129737D01*
X162737070Y-71007584D01*
X162859223Y-70858741D01*
X162949991Y-70688926D01*
X163005886Y-70504667D01*
X163024759Y-70313043D01*
X163600299Y-70313043D01*
X163619172Y-70504667D01*
X163619172Y-70504669D01*
X163619173Y-70504671D01*
X163675065Y-70688919D01*
X163675068Y-70688929D01*
X163765757Y-70858595D01*
X163765835Y-70858741D01*
X163887988Y-71007584D01*
X164036831Y-71129737D01*
X164036833Y-71129738D01*
X164122636Y-71175601D01*
X164206646Y-71220505D01*
X164390905Y-71276400D01*
X164582529Y-71295273D01*
X164774153Y-71276400D01*
X164958412Y-71220505D01*
X165128227Y-71129737D01*
X165277070Y-71007584D01*
X165399223Y-70858741D01*
X165489991Y-70688926D01*
X165545886Y-70504667D01*
X165564759Y-70313043D01*
X166140299Y-70313043D01*
X166159172Y-70504667D01*
X166159172Y-70504669D01*
X166159173Y-70504671D01*
X166215065Y-70688919D01*
X166215068Y-70688929D01*
X166305757Y-70858595D01*
X166305835Y-70858741D01*
X166427988Y-71007584D01*
X166576831Y-71129737D01*
X166576833Y-71129738D01*
X166662636Y-71175601D01*
X166746646Y-71220505D01*
X166930905Y-71276400D01*
X167122529Y-71295273D01*
X167314153Y-71276400D01*
X167498412Y-71220505D01*
X167668227Y-71129737D01*
X167817070Y-71007584D01*
X167939223Y-70858741D01*
X168029991Y-70688926D01*
X168085886Y-70504667D01*
X168104759Y-70313043D01*
X168680299Y-70313043D01*
X168699172Y-70504667D01*
X168699172Y-70504669D01*
X168699173Y-70504671D01*
X168755065Y-70688919D01*
X168755068Y-70688929D01*
X168845757Y-70858595D01*
X168845835Y-70858741D01*
X168967988Y-71007584D01*
X169116831Y-71129737D01*
X169116833Y-71129738D01*
X169202636Y-71175601D01*
X169286646Y-71220505D01*
X169470905Y-71276400D01*
X169662529Y-71295273D01*
X169854153Y-71276400D01*
X170038412Y-71220505D01*
X170208227Y-71129737D01*
X170357070Y-71007584D01*
X170479223Y-70858741D01*
X170569991Y-70688926D01*
X170625886Y-70504667D01*
X170644759Y-70313043D01*
X171220299Y-70313043D01*
X171239172Y-70504667D01*
X171239172Y-70504669D01*
X171239173Y-70504671D01*
X171295065Y-70688919D01*
X171295068Y-70688929D01*
X171385757Y-70858595D01*
X171385835Y-70858741D01*
X171507988Y-71007584D01*
X171656831Y-71129737D01*
X171656833Y-71129738D01*
X171742636Y-71175601D01*
X171826646Y-71220505D01*
X172010905Y-71276400D01*
X172202529Y-71295273D01*
X172394153Y-71276400D01*
X172578412Y-71220505D01*
X172748227Y-71129737D01*
X172897070Y-71007584D01*
X173019223Y-70858741D01*
X173109991Y-70688926D01*
X173165886Y-70504667D01*
X173184759Y-70313043D01*
X173760299Y-70313043D01*
X173779172Y-70504667D01*
X173779172Y-70504669D01*
X173779173Y-70504671D01*
X173835065Y-70688919D01*
X173835068Y-70688929D01*
X173925757Y-70858595D01*
X173925835Y-70858741D01*
X174047988Y-71007584D01*
X174196831Y-71129737D01*
X174196833Y-71129738D01*
X174282636Y-71175601D01*
X174366646Y-71220505D01*
X174550905Y-71276400D01*
X174742529Y-71295273D01*
X174934153Y-71276400D01*
X175118412Y-71220505D01*
X175288227Y-71129737D01*
X175437070Y-71007584D01*
X175559223Y-70858741D01*
X175649991Y-70688926D01*
X175705886Y-70504667D01*
X175724759Y-70313043D01*
X175705886Y-70121419D01*
X175649991Y-69937160D01*
X175559223Y-69767345D01*
X175437070Y-69618502D01*
X175288227Y-69496349D01*
X175288225Y-69496348D01*
X175288224Y-69496347D01*
X175118415Y-69405582D01*
X175118405Y-69405579D01*
X174934157Y-69349687D01*
X174934155Y-69349686D01*
X174934153Y-69349686D01*
X174742529Y-69330813D01*
X174550905Y-69349686D01*
X174550902Y-69349686D01*
X174550900Y-69349687D01*
X174366652Y-69405579D01*
X174366642Y-69405582D01*
X174196833Y-69496347D01*
X174047988Y-69618502D01*
X173925833Y-69767347D01*
X173835068Y-69937156D01*
X173835065Y-69937166D01*
X173779173Y-70121414D01*
X173779172Y-70121416D01*
X173779172Y-70121419D01*
X173760299Y-70313043D01*
X173184759Y-70313043D01*
X173165886Y-70121419D01*
X173109991Y-69937160D01*
X173019223Y-69767345D01*
X172897070Y-69618502D01*
X172748227Y-69496349D01*
X172748225Y-69496348D01*
X172748224Y-69496347D01*
X172578415Y-69405582D01*
X172578405Y-69405579D01*
X172394157Y-69349687D01*
X172394155Y-69349686D01*
X172394153Y-69349686D01*
X172202529Y-69330813D01*
X172010905Y-69349686D01*
X172010902Y-69349686D01*
X172010900Y-69349687D01*
X171826652Y-69405579D01*
X171826642Y-69405582D01*
X171656833Y-69496347D01*
X171507988Y-69618502D01*
X171385833Y-69767347D01*
X171295068Y-69937156D01*
X171295065Y-69937166D01*
X171239173Y-70121414D01*
X171239172Y-70121416D01*
X171239172Y-70121419D01*
X171220299Y-70313043D01*
X170644759Y-70313043D01*
X170625886Y-70121419D01*
X170569991Y-69937160D01*
X170479223Y-69767345D01*
X170357070Y-69618502D01*
X170208227Y-69496349D01*
X170208225Y-69496348D01*
X170208224Y-69496347D01*
X170038415Y-69405582D01*
X170038405Y-69405579D01*
X169854157Y-69349687D01*
X169854155Y-69349686D01*
X169854153Y-69349686D01*
X169662529Y-69330813D01*
X169470905Y-69349686D01*
X169470902Y-69349686D01*
X169470900Y-69349687D01*
X169286652Y-69405579D01*
X169286642Y-69405582D01*
X169116833Y-69496347D01*
X168967988Y-69618502D01*
X168845833Y-69767347D01*
X168755068Y-69937156D01*
X168755065Y-69937166D01*
X168699173Y-70121414D01*
X168699172Y-70121416D01*
X168699172Y-70121419D01*
X168680299Y-70313043D01*
X168104759Y-70313043D01*
X168085886Y-70121419D01*
X168029991Y-69937160D01*
X167939223Y-69767345D01*
X167817070Y-69618502D01*
X167668227Y-69496349D01*
X167668225Y-69496348D01*
X167668224Y-69496347D01*
X167498415Y-69405582D01*
X167498405Y-69405579D01*
X167314157Y-69349687D01*
X167314155Y-69349686D01*
X167314153Y-69349686D01*
X167122529Y-69330813D01*
X166930905Y-69349686D01*
X166930902Y-69349686D01*
X166930900Y-69349687D01*
X166746652Y-69405579D01*
X166746642Y-69405582D01*
X166576833Y-69496347D01*
X166427988Y-69618502D01*
X166305833Y-69767347D01*
X166215068Y-69937156D01*
X166215065Y-69937166D01*
X166159173Y-70121414D01*
X166159172Y-70121416D01*
X166159172Y-70121419D01*
X166140299Y-70313043D01*
X165564759Y-70313043D01*
X165545886Y-70121419D01*
X165489991Y-69937160D01*
X165399223Y-69767345D01*
X165277070Y-69618502D01*
X165128227Y-69496349D01*
X165128225Y-69496348D01*
X165128224Y-69496347D01*
X164958415Y-69405582D01*
X164958405Y-69405579D01*
X164774157Y-69349687D01*
X164774155Y-69349686D01*
X164774153Y-69349686D01*
X164582529Y-69330813D01*
X164390905Y-69349686D01*
X164390902Y-69349686D01*
X164390900Y-69349687D01*
X164206652Y-69405579D01*
X164206642Y-69405582D01*
X164036833Y-69496347D01*
X163887988Y-69618502D01*
X163765833Y-69767347D01*
X163675068Y-69937156D01*
X163675065Y-69937166D01*
X163619173Y-70121414D01*
X163619172Y-70121416D01*
X163619172Y-70121419D01*
X163600299Y-70313043D01*
X163024759Y-70313043D01*
X163005886Y-70121419D01*
X162949991Y-69937160D01*
X162859223Y-69767345D01*
X162737070Y-69618502D01*
X162588227Y-69496349D01*
X162588225Y-69496348D01*
X162588224Y-69496347D01*
X162418415Y-69405582D01*
X162418405Y-69405579D01*
X162234157Y-69349687D01*
X162234155Y-69349686D01*
X162234153Y-69349686D01*
X162042529Y-69330813D01*
X161850905Y-69349686D01*
X161850902Y-69349686D01*
X161850900Y-69349687D01*
X161666652Y-69405579D01*
X161666642Y-69405582D01*
X161496833Y-69496347D01*
X161347988Y-69618502D01*
X161225833Y-69767347D01*
X161135068Y-69937156D01*
X161135065Y-69937166D01*
X161079173Y-70121414D01*
X161079172Y-70121416D01*
X161079172Y-70121419D01*
X161060299Y-70313043D01*
X157944759Y-70313043D01*
X157925886Y-70121419D01*
X157869991Y-69937160D01*
X157779223Y-69767345D01*
X157657070Y-69618502D01*
X157508227Y-69496349D01*
X157508225Y-69496348D01*
X157508224Y-69496347D01*
X157338415Y-69405582D01*
X157338405Y-69405579D01*
X157154157Y-69349687D01*
X157154155Y-69349686D01*
X157154153Y-69349686D01*
X156962529Y-69330813D01*
X156770905Y-69349686D01*
X156770902Y-69349686D01*
X156770900Y-69349687D01*
X156586652Y-69405579D01*
X156586642Y-69405582D01*
X156416833Y-69496347D01*
X156267988Y-69618502D01*
X156145833Y-69767347D01*
X156055068Y-69937156D01*
X156055065Y-69937166D01*
X155999173Y-70121414D01*
X155999172Y-70121416D01*
X155999172Y-70121419D01*
X155980299Y-70313043D01*
X155404759Y-70313043D01*
X155385886Y-70121419D01*
X155329991Y-69937160D01*
X155239223Y-69767345D01*
X155117070Y-69618502D01*
X154968227Y-69496349D01*
X154968225Y-69496348D01*
X154968224Y-69496347D01*
X154798415Y-69405582D01*
X154798405Y-69405579D01*
X154614157Y-69349687D01*
X154614155Y-69349686D01*
X154614153Y-69349686D01*
X154422529Y-69330813D01*
X154230905Y-69349686D01*
X154230902Y-69349686D01*
X154230900Y-69349687D01*
X154046652Y-69405579D01*
X154046642Y-69405582D01*
X153876833Y-69496347D01*
X153727988Y-69618502D01*
X153605833Y-69767347D01*
X153515068Y-69937156D01*
X153515065Y-69937166D01*
X153459173Y-70121414D01*
X153459172Y-70121416D01*
X153459172Y-70121419D01*
X153440299Y-70313043D01*
X152864759Y-70313043D01*
X152845886Y-70121419D01*
X152789991Y-69937160D01*
X152699223Y-69767345D01*
X152577070Y-69618502D01*
X152428227Y-69496349D01*
X152428225Y-69496348D01*
X152428224Y-69496347D01*
X152258415Y-69405582D01*
X152258405Y-69405579D01*
X152074157Y-69349687D01*
X152074155Y-69349686D01*
X152074153Y-69349686D01*
X151882529Y-69330813D01*
X151690905Y-69349686D01*
X151690902Y-69349686D01*
X151690900Y-69349687D01*
X151506652Y-69405579D01*
X151506642Y-69405582D01*
X151336833Y-69496347D01*
X151187988Y-69618502D01*
X151065833Y-69767347D01*
X150975068Y-69937156D01*
X150975065Y-69937166D01*
X150919173Y-70121414D01*
X150919172Y-70121416D01*
X150919172Y-70121419D01*
X150900299Y-70313043D01*
X150324759Y-70313043D01*
X150305886Y-70121419D01*
X150249991Y-69937160D01*
X150159223Y-69767345D01*
X150037070Y-69618502D01*
X149888227Y-69496349D01*
X149888225Y-69496348D01*
X149888224Y-69496347D01*
X149718415Y-69405582D01*
X149718405Y-69405579D01*
X149534157Y-69349687D01*
X149534155Y-69349686D01*
X149534153Y-69349686D01*
X149342529Y-69330813D01*
X149150905Y-69349686D01*
X149150902Y-69349686D01*
X149150900Y-69349687D01*
X148966652Y-69405579D01*
X148966642Y-69405582D01*
X148796833Y-69496347D01*
X148647988Y-69618502D01*
X148525833Y-69767347D01*
X148435068Y-69937156D01*
X148435065Y-69937166D01*
X148379173Y-70121414D01*
X148379172Y-70121416D01*
X148379172Y-70121419D01*
X148360299Y-70313043D01*
X147784759Y-70313043D01*
X147765886Y-70121419D01*
X147709991Y-69937160D01*
X147619223Y-69767345D01*
X147497070Y-69618502D01*
X147348227Y-69496349D01*
X147348225Y-69496348D01*
X147348224Y-69496347D01*
X147178415Y-69405582D01*
X147178405Y-69405579D01*
X146994157Y-69349687D01*
X146994155Y-69349686D01*
X146994153Y-69349686D01*
X146802529Y-69330813D01*
X146610905Y-69349686D01*
X146610902Y-69349686D01*
X146610900Y-69349687D01*
X146426652Y-69405579D01*
X146426642Y-69405582D01*
X146256833Y-69496347D01*
X146107988Y-69618502D01*
X145985833Y-69767347D01*
X145895068Y-69937156D01*
X145895065Y-69937166D01*
X145839173Y-70121414D01*
X145839172Y-70121416D01*
X145839172Y-70121419D01*
X145820299Y-70313043D01*
X145244759Y-70313043D01*
X145225886Y-70121419D01*
X145169991Y-69937160D01*
X145079223Y-69767345D01*
X144957070Y-69618502D01*
X144808227Y-69496349D01*
X144808225Y-69496348D01*
X144808224Y-69496347D01*
X144638415Y-69405582D01*
X144638405Y-69405579D01*
X144454157Y-69349687D01*
X144454155Y-69349686D01*
X144454153Y-69349686D01*
X144262529Y-69330813D01*
X144070905Y-69349686D01*
X144070902Y-69349686D01*
X144070900Y-69349687D01*
X143886652Y-69405579D01*
X143886642Y-69405582D01*
X143716833Y-69496347D01*
X143567988Y-69618502D01*
X143445833Y-69767347D01*
X143355068Y-69937156D01*
X143355065Y-69937166D01*
X143299173Y-70121414D01*
X143299172Y-70121416D01*
X143299172Y-70121419D01*
X143280299Y-70313043D01*
X142704759Y-70313043D01*
X142685886Y-70121419D01*
X142629991Y-69937160D01*
X142539223Y-69767345D01*
X142417070Y-69618502D01*
X142268227Y-69496349D01*
X142268225Y-69496348D01*
X142268224Y-69496347D01*
X142098415Y-69405582D01*
X142098405Y-69405579D01*
X141914157Y-69349687D01*
X141914155Y-69349686D01*
X141914153Y-69349686D01*
X141722529Y-69330813D01*
X141530905Y-69349686D01*
X141530902Y-69349686D01*
X141530900Y-69349687D01*
X141346652Y-69405579D01*
X141346642Y-69405582D01*
X141176833Y-69496347D01*
X141027988Y-69618502D01*
X140905833Y-69767347D01*
X140815068Y-69937156D01*
X140815065Y-69937166D01*
X140759173Y-70121414D01*
X140759172Y-70121416D01*
X140759172Y-70121419D01*
X140740299Y-70313043D01*
X137624759Y-70313043D01*
X137605886Y-70121419D01*
X137549991Y-69937160D01*
X137459223Y-69767345D01*
X137337070Y-69618502D01*
X137188227Y-69496349D01*
X137188225Y-69496348D01*
X137188224Y-69496347D01*
X137018415Y-69405582D01*
X137018405Y-69405579D01*
X136834157Y-69349687D01*
X136834155Y-69349686D01*
X136834153Y-69349686D01*
X136642529Y-69330813D01*
X136450905Y-69349686D01*
X136450902Y-69349686D01*
X136450900Y-69349687D01*
X136266652Y-69405579D01*
X136266642Y-69405582D01*
X136096833Y-69496347D01*
X135947988Y-69618502D01*
X135825833Y-69767347D01*
X135735068Y-69937156D01*
X135735065Y-69937166D01*
X135679173Y-70121414D01*
X135679172Y-70121416D01*
X135679172Y-70121419D01*
X135660299Y-70313043D01*
X135084759Y-70313043D01*
X135065886Y-70121419D01*
X135009991Y-69937160D01*
X134919223Y-69767345D01*
X134797070Y-69618502D01*
X134648227Y-69496349D01*
X134648225Y-69496348D01*
X134648224Y-69496347D01*
X134478415Y-69405582D01*
X134478405Y-69405579D01*
X134294157Y-69349687D01*
X134294155Y-69349686D01*
X134294153Y-69349686D01*
X134102529Y-69330813D01*
X133910905Y-69349686D01*
X133910902Y-69349686D01*
X133910900Y-69349687D01*
X133726652Y-69405579D01*
X133726642Y-69405582D01*
X133556833Y-69496347D01*
X133407988Y-69618502D01*
X133285833Y-69767347D01*
X133195068Y-69937156D01*
X133195065Y-69937166D01*
X133139173Y-70121414D01*
X133139172Y-70121416D01*
X133139172Y-70121419D01*
X133120299Y-70313043D01*
X132544759Y-70313043D01*
X132525886Y-70121419D01*
X132469991Y-69937160D01*
X132379223Y-69767345D01*
X132257070Y-69618502D01*
X132108227Y-69496349D01*
X132108225Y-69496348D01*
X132108224Y-69496347D01*
X131938415Y-69405582D01*
X131938405Y-69405579D01*
X131754157Y-69349687D01*
X131754155Y-69349686D01*
X131754153Y-69349686D01*
X131562529Y-69330813D01*
X131370905Y-69349686D01*
X131370902Y-69349686D01*
X131370900Y-69349687D01*
X131186652Y-69405579D01*
X131186642Y-69405582D01*
X131016833Y-69496347D01*
X130867988Y-69618502D01*
X130745833Y-69767347D01*
X130655068Y-69937156D01*
X130655065Y-69937166D01*
X130599173Y-70121414D01*
X130599172Y-70121416D01*
X130599172Y-70121419D01*
X130580299Y-70313043D01*
X130000029Y-70313043D01*
X130000029Y-69450485D01*
X129992631Y-69413295D01*
X129964451Y-69371121D01*
X129964449Y-69371119D01*
X129943434Y-69357078D01*
X129922277Y-69342941D01*
X129922275Y-69342940D01*
X129894320Y-69337379D01*
X129885087Y-69335543D01*
X128159971Y-69335543D01*
X128152574Y-69337014D01*
X128122782Y-69342940D01*
X128122781Y-69342941D01*
X128080608Y-69371119D01*
X128080605Y-69371122D01*
X128052427Y-69413295D01*
X128052426Y-69413296D01*
X128045029Y-69450486D01*
X128045029Y-71175599D01*
X124599386Y-71175599D01*
X127004136Y-69038043D01*
X179315237Y-69038043D01*
X179334388Y-69366855D01*
X179391581Y-69691211D01*
X179391583Y-69691218D01*
X179486045Y-70006747D01*
X179616496Y-70309167D01*
X179616503Y-70309180D01*
X179781183Y-70594413D01*
X179977853Y-70858589D01*
X179977859Y-70858595D01*
X179977861Y-70858597D01*
X179977867Y-70858605D01*
X180203892Y-71098178D01*
X180203898Y-71098183D01*
X180203901Y-71098186D01*
X180456186Y-71309879D01*
X180456196Y-71309886D01*
X180456201Y-71309890D01*
X180564431Y-71381074D01*
X180731380Y-71490879D01*
X180880505Y-71565771D01*
X181025715Y-71638699D01*
X181025720Y-71638701D01*
X181025729Y-71638705D01*
X181335215Y-71751348D01*
X181335213Y-71751348D01*
X181394509Y-71765401D01*
X181655707Y-71827306D01*
X181901061Y-71855983D01*
X181982844Y-71865543D01*
X181982846Y-71865543D01*
X182312214Y-71865543D01*
X182384909Y-71857045D01*
X182639351Y-71827306D01*
X182959840Y-71751349D01*
X182959843Y-71751348D01*
X183269328Y-71638705D01*
X183269333Y-71638702D01*
X183269343Y-71638699D01*
X183563675Y-71490880D01*
X183838857Y-71309890D01*
X183838866Y-71309882D01*
X183838871Y-71309879D01*
X184091156Y-71098186D01*
X184091166Y-71098178D01*
X184317191Y-70858605D01*
X184317199Y-70858593D01*
X184317204Y-70858589D01*
X184513874Y-70594413D01*
X184678554Y-70309180D01*
X184678561Y-70309167D01*
X184759549Y-70121414D01*
X184809013Y-70006744D01*
X184903476Y-69691214D01*
X184960670Y-69366852D01*
X184979821Y-69038043D01*
X184960670Y-68709234D01*
X184903476Y-68384872D01*
X184809013Y-68069342D01*
X184809012Y-68069338D01*
X184678561Y-67766918D01*
X184678554Y-67766905D01*
X184513874Y-67481672D01*
X184317204Y-67217496D01*
X184317198Y-67217490D01*
X184317196Y-67217488D01*
X184317191Y-67217481D01*
X184091166Y-66977908D01*
X184091159Y-66977902D01*
X184091156Y-66977899D01*
X183838871Y-66766206D01*
X183838859Y-66766198D01*
X183838857Y-66766196D01*
X183789348Y-66733633D01*
X183563677Y-66585206D01*
X183269345Y-66437388D01*
X183269328Y-66437380D01*
X182959842Y-66324737D01*
X182959844Y-66324737D01*
X182639355Y-66248781D01*
X182639351Y-66248780D01*
X182639346Y-66248779D01*
X182639344Y-66248779D01*
X182312214Y-66210543D01*
X182312212Y-66210543D01*
X181982846Y-66210543D01*
X181982844Y-66210543D01*
X181655713Y-66248779D01*
X181655708Y-66248779D01*
X181655707Y-66248780D01*
X181655705Y-66248780D01*
X181655702Y-66248781D01*
X181335214Y-66324737D01*
X181025729Y-66437380D01*
X181025712Y-66437388D01*
X180731380Y-66585206D01*
X180456205Y-66766193D01*
X180456186Y-66766206D01*
X180203901Y-66977899D01*
X180203888Y-66977912D01*
X179977859Y-67217490D01*
X179977853Y-67217496D01*
X179781183Y-67481672D01*
X179616503Y-67766905D01*
X179616496Y-67766918D01*
X179486046Y-68069338D01*
X179486045Y-68069338D01*
X179391583Y-68384867D01*
X179391581Y-68384874D01*
X179334388Y-68709230D01*
X179315237Y-69038043D01*
X127004136Y-69038043D01*
X127185918Y-68876459D01*
X127193775Y-68873557D01*
X129732198Y-68922374D01*
X129736994Y-68922379D01*
X129737819Y-68922365D01*
X129792637Y-68909465D01*
X129800581Y-68905674D01*
X129842001Y-68874731D01*
X130285534Y-68381918D01*
X130310753Y-68340749D01*
X130313705Y-68333056D01*
X130322500Y-68285587D01*
X130322500Y-67773043D01*
X130580299Y-67773043D01*
X130599172Y-67964667D01*
X130599172Y-67964669D01*
X130599173Y-67964671D01*
X130655065Y-68148919D01*
X130655068Y-68148929D01*
X130745833Y-68318738D01*
X130745835Y-68318741D01*
X130867988Y-68467584D01*
X131016831Y-68589737D01*
X131186646Y-68680505D01*
X131370905Y-68736400D01*
X131562529Y-68755273D01*
X131754153Y-68736400D01*
X131938412Y-68680505D01*
X132108227Y-68589737D01*
X132257070Y-68467584D01*
X132379223Y-68318741D01*
X132469991Y-68148926D01*
X132525886Y-67964667D01*
X132544759Y-67773043D01*
X135660299Y-67773043D01*
X135679172Y-67964667D01*
X135679172Y-67964669D01*
X135679173Y-67964671D01*
X135735065Y-68148919D01*
X135735068Y-68148929D01*
X135825833Y-68318738D01*
X135825835Y-68318741D01*
X135947988Y-68467584D01*
X136096831Y-68589737D01*
X136266646Y-68680505D01*
X136450905Y-68736400D01*
X136642529Y-68755273D01*
X136834153Y-68736400D01*
X137018412Y-68680505D01*
X137188227Y-68589737D01*
X137337070Y-68467584D01*
X137459223Y-68318741D01*
X137549991Y-68148926D01*
X137605886Y-67964667D01*
X137624759Y-67773043D01*
X138200299Y-67773043D01*
X138219172Y-67964667D01*
X138219172Y-67964669D01*
X138219173Y-67964671D01*
X138275065Y-68148919D01*
X138275068Y-68148929D01*
X138365833Y-68318738D01*
X138365835Y-68318741D01*
X138487988Y-68467584D01*
X138636831Y-68589737D01*
X138806646Y-68680505D01*
X138990905Y-68736400D01*
X139182529Y-68755273D01*
X139374153Y-68736400D01*
X139558412Y-68680505D01*
X139728227Y-68589737D01*
X139877070Y-68467584D01*
X139999223Y-68318741D01*
X140089991Y-68148926D01*
X140145886Y-67964667D01*
X140164759Y-67773043D01*
X140740299Y-67773043D01*
X140759172Y-67964667D01*
X140759172Y-67964669D01*
X140759173Y-67964671D01*
X140815065Y-68148919D01*
X140815068Y-68148929D01*
X140905833Y-68318738D01*
X140905835Y-68318741D01*
X141027988Y-68467584D01*
X141176831Y-68589737D01*
X141346646Y-68680505D01*
X141530905Y-68736400D01*
X141722529Y-68755273D01*
X141914153Y-68736400D01*
X142098412Y-68680505D01*
X142268227Y-68589737D01*
X142417070Y-68467584D01*
X142539223Y-68318741D01*
X142629991Y-68148926D01*
X142685886Y-67964667D01*
X142704759Y-67773043D01*
X145820299Y-67773043D01*
X145839172Y-67964667D01*
X145839172Y-67964669D01*
X145839173Y-67964671D01*
X145895065Y-68148919D01*
X145895068Y-68148929D01*
X145985833Y-68318738D01*
X145985835Y-68318741D01*
X146107988Y-68467584D01*
X146256831Y-68589737D01*
X146426646Y-68680505D01*
X146610905Y-68736400D01*
X146802529Y-68755273D01*
X146994153Y-68736400D01*
X147178412Y-68680505D01*
X147348227Y-68589737D01*
X147497070Y-68467584D01*
X147619223Y-68318741D01*
X147709991Y-68148926D01*
X147765886Y-67964667D01*
X147784759Y-67773043D01*
X148360299Y-67773043D01*
X148379172Y-67964667D01*
X148379172Y-67964669D01*
X148379173Y-67964671D01*
X148435065Y-68148919D01*
X148435068Y-68148929D01*
X148525833Y-68318738D01*
X148525835Y-68318741D01*
X148647988Y-68467584D01*
X148796831Y-68589737D01*
X148966646Y-68680505D01*
X149150905Y-68736400D01*
X149342529Y-68755273D01*
X149534153Y-68736400D01*
X149718412Y-68680505D01*
X149888227Y-68589737D01*
X150037070Y-68467584D01*
X150159223Y-68318741D01*
X150249991Y-68148926D01*
X150305886Y-67964667D01*
X150324759Y-67773043D01*
X153440299Y-67773043D01*
X153459172Y-67964667D01*
X153459172Y-67964669D01*
X153459173Y-67964671D01*
X153515065Y-68148919D01*
X153515068Y-68148929D01*
X153605833Y-68318738D01*
X153605835Y-68318741D01*
X153727988Y-68467584D01*
X153876831Y-68589737D01*
X154046646Y-68680505D01*
X154230905Y-68736400D01*
X154422529Y-68755273D01*
X154614153Y-68736400D01*
X154798412Y-68680505D01*
X154968227Y-68589737D01*
X155117070Y-68467584D01*
X155239223Y-68318741D01*
X155329991Y-68148926D01*
X155385886Y-67964667D01*
X155404759Y-67773043D01*
X155980299Y-67773043D01*
X155999172Y-67964667D01*
X155999172Y-67964669D01*
X155999173Y-67964671D01*
X156055065Y-68148919D01*
X156055068Y-68148929D01*
X156145833Y-68318738D01*
X156145835Y-68318741D01*
X156267988Y-68467584D01*
X156416831Y-68589737D01*
X156586646Y-68680505D01*
X156770905Y-68736400D01*
X156962529Y-68755273D01*
X157154153Y-68736400D01*
X157338412Y-68680505D01*
X157508227Y-68589737D01*
X157657070Y-68467584D01*
X157779223Y-68318741D01*
X157869991Y-68148926D01*
X157925886Y-67964667D01*
X157944759Y-67773043D01*
X158520299Y-67773043D01*
X158539172Y-67964667D01*
X158539172Y-67964669D01*
X158539173Y-67964671D01*
X158595065Y-68148919D01*
X158595068Y-68148929D01*
X158685833Y-68318738D01*
X158685835Y-68318741D01*
X158807988Y-68467584D01*
X158956831Y-68589737D01*
X159126646Y-68680505D01*
X159310905Y-68736400D01*
X159502529Y-68755273D01*
X159694153Y-68736400D01*
X159878412Y-68680505D01*
X160048227Y-68589737D01*
X160197070Y-68467584D01*
X160319223Y-68318741D01*
X160409991Y-68148926D01*
X160465886Y-67964667D01*
X160484759Y-67773043D01*
X161060299Y-67773043D01*
X161079172Y-67964667D01*
X161079172Y-67964669D01*
X161079173Y-67964671D01*
X161135065Y-68148919D01*
X161135068Y-68148929D01*
X161225833Y-68318738D01*
X161225835Y-68318741D01*
X161347988Y-68467584D01*
X161496831Y-68589737D01*
X161666646Y-68680505D01*
X161850905Y-68736400D01*
X162042529Y-68755273D01*
X162234153Y-68736400D01*
X162418412Y-68680505D01*
X162588227Y-68589737D01*
X162737070Y-68467584D01*
X162859223Y-68318741D01*
X162949991Y-68148926D01*
X163005886Y-67964667D01*
X163024759Y-67773043D01*
X166140299Y-67773043D01*
X166159172Y-67964667D01*
X166159172Y-67964669D01*
X166159173Y-67964671D01*
X166215065Y-68148919D01*
X166215068Y-68148929D01*
X166305833Y-68318738D01*
X166305835Y-68318741D01*
X166427988Y-68467584D01*
X166576831Y-68589737D01*
X166746646Y-68680505D01*
X166930905Y-68736400D01*
X167122529Y-68755273D01*
X167314153Y-68736400D01*
X167498412Y-68680505D01*
X167668227Y-68589737D01*
X167817070Y-68467584D01*
X167939223Y-68318741D01*
X168029991Y-68148926D01*
X168085886Y-67964667D01*
X168104759Y-67773043D01*
X171220299Y-67773043D01*
X171239172Y-67964667D01*
X171239172Y-67964669D01*
X171239173Y-67964671D01*
X171295065Y-68148919D01*
X171295068Y-68148929D01*
X171385833Y-68318738D01*
X171385835Y-68318741D01*
X171507988Y-68467584D01*
X171656831Y-68589737D01*
X171826646Y-68680505D01*
X172010905Y-68736400D01*
X172202529Y-68755273D01*
X172394153Y-68736400D01*
X172578412Y-68680505D01*
X172748227Y-68589737D01*
X172897070Y-68467584D01*
X173019223Y-68318741D01*
X173109991Y-68148926D01*
X173165886Y-67964667D01*
X173184759Y-67773043D01*
X173760299Y-67773043D01*
X173779172Y-67964667D01*
X173779172Y-67964669D01*
X173779173Y-67964671D01*
X173835065Y-68148919D01*
X173835068Y-68148929D01*
X173925833Y-68318738D01*
X173925835Y-68318741D01*
X174047988Y-68467584D01*
X174196831Y-68589737D01*
X174366646Y-68680505D01*
X174550905Y-68736400D01*
X174742529Y-68755273D01*
X174934153Y-68736400D01*
X175118412Y-68680505D01*
X175288227Y-68589737D01*
X175437070Y-68467584D01*
X175559223Y-68318741D01*
X175649991Y-68148926D01*
X175705886Y-67964667D01*
X175724759Y-67773043D01*
X176300299Y-67773043D01*
X176319172Y-67964667D01*
X176319172Y-67964669D01*
X176319173Y-67964671D01*
X176375065Y-68148919D01*
X176375068Y-68148929D01*
X176465833Y-68318738D01*
X176465835Y-68318741D01*
X176587988Y-68467584D01*
X176736831Y-68589737D01*
X176906646Y-68680505D01*
X177090905Y-68736400D01*
X177282529Y-68755273D01*
X177474153Y-68736400D01*
X177658412Y-68680505D01*
X177828227Y-68589737D01*
X177977070Y-68467584D01*
X178099223Y-68318741D01*
X178189991Y-68148926D01*
X178245886Y-67964667D01*
X178264759Y-67773043D01*
X178245886Y-67581419D01*
X178189991Y-67397160D01*
X178099223Y-67227345D01*
X177977070Y-67078502D01*
X177828227Y-66956349D01*
X177828225Y-66956348D01*
X177828224Y-66956347D01*
X177658415Y-66865582D01*
X177658405Y-66865579D01*
X177474157Y-66809687D01*
X177474155Y-66809686D01*
X177474153Y-66809686D01*
X177282529Y-66790813D01*
X177090905Y-66809686D01*
X177090902Y-66809686D01*
X177090900Y-66809687D01*
X176906652Y-66865579D01*
X176906642Y-66865582D01*
X176736833Y-66956347D01*
X176587988Y-67078502D01*
X176465833Y-67227347D01*
X176375068Y-67397156D01*
X176375065Y-67397166D01*
X176319173Y-67581414D01*
X176319172Y-67581416D01*
X176319172Y-67581419D01*
X176300299Y-67773043D01*
X175724759Y-67773043D01*
X175705886Y-67581419D01*
X175649991Y-67397160D01*
X175559223Y-67227345D01*
X175437070Y-67078502D01*
X175288227Y-66956349D01*
X175288225Y-66956348D01*
X175288224Y-66956347D01*
X175118415Y-66865582D01*
X175118405Y-66865579D01*
X174934157Y-66809687D01*
X174934155Y-66809686D01*
X174934153Y-66809686D01*
X174742529Y-66790813D01*
X174550905Y-66809686D01*
X174550902Y-66809686D01*
X174550900Y-66809687D01*
X174366652Y-66865579D01*
X174366642Y-66865582D01*
X174196833Y-66956347D01*
X174047988Y-67078502D01*
X173925833Y-67227347D01*
X173835068Y-67397156D01*
X173835065Y-67397166D01*
X173779173Y-67581414D01*
X173779172Y-67581416D01*
X173779172Y-67581419D01*
X173760299Y-67773043D01*
X173184759Y-67773043D01*
X173165886Y-67581419D01*
X173109991Y-67397160D01*
X173019223Y-67227345D01*
X172897070Y-67078502D01*
X172748227Y-66956349D01*
X172748225Y-66956348D01*
X172748224Y-66956347D01*
X172578415Y-66865582D01*
X172578405Y-66865579D01*
X172394157Y-66809687D01*
X172394155Y-66809686D01*
X172394153Y-66809686D01*
X172202529Y-66790813D01*
X172010905Y-66809686D01*
X172010902Y-66809686D01*
X172010900Y-66809687D01*
X171826652Y-66865579D01*
X171826642Y-66865582D01*
X171656833Y-66956347D01*
X171507988Y-67078502D01*
X171385833Y-67227347D01*
X171295068Y-67397156D01*
X171295065Y-67397166D01*
X171239173Y-67581414D01*
X171239172Y-67581416D01*
X171239172Y-67581419D01*
X171220299Y-67773043D01*
X168104759Y-67773043D01*
X168085886Y-67581419D01*
X168029991Y-67397160D01*
X167939223Y-67227345D01*
X167817070Y-67078502D01*
X167668227Y-66956349D01*
X167668225Y-66956348D01*
X167668224Y-66956347D01*
X167498415Y-66865582D01*
X167498405Y-66865579D01*
X167314157Y-66809687D01*
X167314155Y-66809686D01*
X167314153Y-66809686D01*
X167122529Y-66790813D01*
X166930905Y-66809686D01*
X166930902Y-66809686D01*
X166930900Y-66809687D01*
X166746652Y-66865579D01*
X166746642Y-66865582D01*
X166576833Y-66956347D01*
X166427988Y-67078502D01*
X166305833Y-67227347D01*
X166215068Y-67397156D01*
X166215065Y-67397166D01*
X166159173Y-67581414D01*
X166159172Y-67581416D01*
X166159172Y-67581419D01*
X166140299Y-67773043D01*
X163024759Y-67773043D01*
X163005886Y-67581419D01*
X162949991Y-67397160D01*
X162859223Y-67227345D01*
X162737070Y-67078502D01*
X162588227Y-66956349D01*
X162588225Y-66956348D01*
X162588224Y-66956347D01*
X162418415Y-66865582D01*
X162418405Y-66865579D01*
X162234157Y-66809687D01*
X162234155Y-66809686D01*
X162234153Y-66809686D01*
X162042529Y-66790813D01*
X161850905Y-66809686D01*
X161850902Y-66809686D01*
X161850900Y-66809687D01*
X161666652Y-66865579D01*
X161666642Y-66865582D01*
X161496833Y-66956347D01*
X161347988Y-67078502D01*
X161225833Y-67227347D01*
X161135068Y-67397156D01*
X161135065Y-67397166D01*
X161079173Y-67581414D01*
X161079172Y-67581416D01*
X161079172Y-67581419D01*
X161060299Y-67773043D01*
X160484759Y-67773043D01*
X160465886Y-67581419D01*
X160409991Y-67397160D01*
X160319223Y-67227345D01*
X160197070Y-67078502D01*
X160048227Y-66956349D01*
X160048225Y-66956348D01*
X160048224Y-66956347D01*
X159878415Y-66865582D01*
X159878405Y-66865579D01*
X159694157Y-66809687D01*
X159694155Y-66809686D01*
X159694153Y-66809686D01*
X159502529Y-66790813D01*
X159310905Y-66809686D01*
X159310902Y-66809686D01*
X159310900Y-66809687D01*
X159126652Y-66865579D01*
X159126642Y-66865582D01*
X158956833Y-66956347D01*
X158807988Y-67078502D01*
X158685833Y-67227347D01*
X158595068Y-67397156D01*
X158595065Y-67397166D01*
X158539173Y-67581414D01*
X158539172Y-67581416D01*
X158539172Y-67581419D01*
X158520299Y-67773043D01*
X157944759Y-67773043D01*
X157925886Y-67581419D01*
X157869991Y-67397160D01*
X157779223Y-67227345D01*
X157657070Y-67078502D01*
X157508227Y-66956349D01*
X157508225Y-66956348D01*
X157508224Y-66956347D01*
X157338415Y-66865582D01*
X157338405Y-66865579D01*
X157154157Y-66809687D01*
X157154155Y-66809686D01*
X157154153Y-66809686D01*
X156962529Y-66790813D01*
X156770905Y-66809686D01*
X156770902Y-66809686D01*
X156770900Y-66809687D01*
X156586652Y-66865579D01*
X156586642Y-66865582D01*
X156416833Y-66956347D01*
X156267988Y-67078502D01*
X156145833Y-67227347D01*
X156055068Y-67397156D01*
X156055065Y-67397166D01*
X155999173Y-67581414D01*
X155999172Y-67581416D01*
X155999172Y-67581419D01*
X155980299Y-67773043D01*
X155404759Y-67773043D01*
X155385886Y-67581419D01*
X155329991Y-67397160D01*
X155239223Y-67227345D01*
X155117070Y-67078502D01*
X154968227Y-66956349D01*
X154968225Y-66956348D01*
X154968224Y-66956347D01*
X154798415Y-66865582D01*
X154798405Y-66865579D01*
X154614157Y-66809687D01*
X154614155Y-66809686D01*
X154614153Y-66809686D01*
X154422529Y-66790813D01*
X154230905Y-66809686D01*
X154230902Y-66809686D01*
X154230900Y-66809687D01*
X154046652Y-66865579D01*
X154046642Y-66865582D01*
X153876833Y-66956347D01*
X153727988Y-67078502D01*
X153605833Y-67227347D01*
X153515068Y-67397156D01*
X153515065Y-67397166D01*
X153459173Y-67581414D01*
X153459172Y-67581416D01*
X153459172Y-67581419D01*
X153440299Y-67773043D01*
X150324759Y-67773043D01*
X150305886Y-67581419D01*
X150249991Y-67397160D01*
X150159223Y-67227345D01*
X150037070Y-67078502D01*
X149888227Y-66956349D01*
X149888225Y-66956348D01*
X149888224Y-66956347D01*
X149718415Y-66865582D01*
X149718405Y-66865579D01*
X149534157Y-66809687D01*
X149534155Y-66809686D01*
X149534153Y-66809686D01*
X149342529Y-66790813D01*
X149150905Y-66809686D01*
X149150902Y-66809686D01*
X149150900Y-66809687D01*
X148966652Y-66865579D01*
X148966642Y-66865582D01*
X148796833Y-66956347D01*
X148647988Y-67078502D01*
X148525833Y-67227347D01*
X148435068Y-67397156D01*
X148435065Y-67397166D01*
X148379173Y-67581414D01*
X148379172Y-67581416D01*
X148379172Y-67581419D01*
X148360299Y-67773043D01*
X147784759Y-67773043D01*
X147765886Y-67581419D01*
X147709991Y-67397160D01*
X147619223Y-67227345D01*
X147497070Y-67078502D01*
X147348227Y-66956349D01*
X147348225Y-66956348D01*
X147348224Y-66956347D01*
X147178415Y-66865582D01*
X147178405Y-66865579D01*
X146994157Y-66809687D01*
X146994155Y-66809686D01*
X146994153Y-66809686D01*
X146802529Y-66790813D01*
X146610905Y-66809686D01*
X146610902Y-66809686D01*
X146610900Y-66809687D01*
X146426652Y-66865579D01*
X146426642Y-66865582D01*
X146256833Y-66956347D01*
X146107988Y-67078502D01*
X145985833Y-67227347D01*
X145895068Y-67397156D01*
X145895065Y-67397166D01*
X145839173Y-67581414D01*
X145839172Y-67581416D01*
X145839172Y-67581419D01*
X145820299Y-67773043D01*
X142704759Y-67773043D01*
X142685886Y-67581419D01*
X142629991Y-67397160D01*
X142539223Y-67227345D01*
X142417070Y-67078502D01*
X142268227Y-66956349D01*
X142268225Y-66956348D01*
X142268224Y-66956347D01*
X142098415Y-66865582D01*
X142098405Y-66865579D01*
X141914157Y-66809687D01*
X141914155Y-66809686D01*
X141914153Y-66809686D01*
X141722529Y-66790813D01*
X141530905Y-66809686D01*
X141530902Y-66809686D01*
X141530900Y-66809687D01*
X141346652Y-66865579D01*
X141346642Y-66865582D01*
X141176833Y-66956347D01*
X141027988Y-67078502D01*
X140905833Y-67227347D01*
X140815068Y-67397156D01*
X140815065Y-67397166D01*
X140759173Y-67581414D01*
X140759172Y-67581416D01*
X140759172Y-67581419D01*
X140740299Y-67773043D01*
X140164759Y-67773043D01*
X140145886Y-67581419D01*
X140089991Y-67397160D01*
X139999223Y-67227345D01*
X139877070Y-67078502D01*
X139728227Y-66956349D01*
X139728225Y-66956348D01*
X139728224Y-66956347D01*
X139558415Y-66865582D01*
X139558405Y-66865579D01*
X139374157Y-66809687D01*
X139374155Y-66809686D01*
X139374153Y-66809686D01*
X139182529Y-66790813D01*
X138990905Y-66809686D01*
X138990902Y-66809686D01*
X138990900Y-66809687D01*
X138806652Y-66865579D01*
X138806642Y-66865582D01*
X138636833Y-66956347D01*
X138487988Y-67078502D01*
X138365833Y-67227347D01*
X138275068Y-67397156D01*
X138275065Y-67397166D01*
X138219173Y-67581414D01*
X138219172Y-67581416D01*
X138219172Y-67581419D01*
X138200299Y-67773043D01*
X137624759Y-67773043D01*
X137605886Y-67581419D01*
X137549991Y-67397160D01*
X137459223Y-67227345D01*
X137337070Y-67078502D01*
X137188227Y-66956349D01*
X137188225Y-66956348D01*
X137188224Y-66956347D01*
X137018415Y-66865582D01*
X137018405Y-66865579D01*
X136834157Y-66809687D01*
X136834155Y-66809686D01*
X136834153Y-66809686D01*
X136642529Y-66790813D01*
X136450905Y-66809686D01*
X136450902Y-66809686D01*
X136450900Y-66809687D01*
X136266652Y-66865579D01*
X136266642Y-66865582D01*
X136096833Y-66956347D01*
X135947988Y-67078502D01*
X135825833Y-67227347D01*
X135735068Y-67397156D01*
X135735065Y-67397166D01*
X135679173Y-67581414D01*
X135679172Y-67581416D01*
X135679172Y-67581419D01*
X135660299Y-67773043D01*
X132544759Y-67773043D01*
X132525886Y-67581419D01*
X132469991Y-67397160D01*
X132379223Y-67227345D01*
X132257070Y-67078502D01*
X132108227Y-66956349D01*
X132108225Y-66956348D01*
X132108224Y-66956347D01*
X131938415Y-66865582D01*
X131938405Y-66865579D01*
X131754157Y-66809687D01*
X131754155Y-66809686D01*
X131754153Y-66809686D01*
X131562529Y-66790813D01*
X131370905Y-66809686D01*
X131370902Y-66809686D01*
X131370900Y-66809687D01*
X131186652Y-66865579D01*
X131186642Y-66865582D01*
X131016833Y-66956347D01*
X130867988Y-67078502D01*
X130745833Y-67227347D01*
X130655068Y-67397156D01*
X130655065Y-67397166D01*
X130599173Y-67581414D01*
X130599172Y-67581416D01*
X130599172Y-67581419D01*
X130580299Y-67773043D01*
X130322500Y-67773043D01*
X130322500Y-66445121D01*
X130322454Y-66441612D01*
X130322438Y-66441008D01*
X130309563Y-66387445D01*
X130305772Y-66379502D01*
X130274831Y-66338088D01*
X129781918Y-65894466D01*
X129781913Y-65894463D01*
X129781912Y-65894462D01*
X129740752Y-65869248D01*
X129733054Y-65866294D01*
X129685587Y-65857500D01*
X120093483Y-65857500D01*
X120093481Y-65857500D01*
X120055097Y-65863182D01*
X120048714Y-65865114D01*
X120013608Y-65881683D01*
X119571613Y-66176345D01*
X119561138Y-66184101D01*
X119561113Y-66184120D01*
X119559368Y-66185551D01*
X119520953Y-66237318D01*
X119517583Y-66245455D01*
X119507500Y-66296155D01*
X119507500Y-84735235D01*
X100462529Y-84735235D01*
X100462529Y-75325599D01*
X104935029Y-75325599D01*
X104942426Y-75362789D01*
X104942427Y-75362791D01*
X104956564Y-75383948D01*
X104970605Y-75404963D01*
X104970607Y-75404965D01*
X105012781Y-75433145D01*
X105049971Y-75440543D01*
X105049972Y-75440543D01*
X107675086Y-75440543D01*
X107675087Y-75440543D01*
X107712277Y-75433145D01*
X107754451Y-75404965D01*
X107782631Y-75362791D01*
X107790029Y-75325601D01*
X107790029Y-72700485D01*
X107782631Y-72663295D01*
X107754451Y-72621121D01*
X107754449Y-72621119D01*
X107733434Y-72607078D01*
X107712277Y-72592941D01*
X107712275Y-72592940D01*
X107684320Y-72587379D01*
X107675087Y-72585543D01*
X105049971Y-72585543D01*
X105042574Y-72587014D01*
X105012782Y-72592940D01*
X105012781Y-72592941D01*
X104970608Y-72621119D01*
X104970605Y-72621122D01*
X104942427Y-72663295D01*
X104942426Y-72663296D01*
X104935029Y-72700486D01*
X104935029Y-75325599D01*
X100462529Y-75325599D01*
X100462529Y-65549543D01*
X100465897Y-65541411D01*
X100474029Y-65538043D01*
X187491029Y-65538043D01*
X187499161Y-65541411D01*
G37*
%TD.AperFunction*%
%TD*%
%TA.AperFunction,Conductor*%
%TO.N,+5V_4*%
G36*
X129693280Y-65992952D02*
G01*
X130186193Y-66436574D01*
X130189984Y-66444517D01*
X130190000Y-66445121D01*
X130190000Y-68285587D01*
X130187048Y-68293280D01*
X129743515Y-68786093D01*
X129735571Y-68789884D01*
X129734746Y-68789898D01*
X127139998Y-68739999D01*
X122640000Y-72739999D01*
X122640000Y-84735236D01*
X122636632Y-84743368D01*
X122143368Y-85236632D01*
X122135236Y-85240000D01*
X120144764Y-85240000D01*
X120136632Y-85236632D01*
X119643368Y-84743368D01*
X119640000Y-84735236D01*
X119640000Y-66296155D01*
X119643368Y-66288023D01*
X119645121Y-66286586D01*
X120087104Y-65991931D01*
X120093483Y-65990000D01*
X129685587Y-65990000D01*
X129693280Y-65992952D01*
G37*
%TD.AperFunction*%
%TD*%
M02*
